<?xml version="1.0"?>
<svg xmlns="http://www.w3.org/2000/svg" xmlns:xlink="http://www.w3.org/1999/xlink" version="1.1" id="Layer_1" x="0px" y="0px" viewBox="0 0 100 100" enable-background="new 0 0 100 100" xml:space="preserve" width="512px" height="512px"><g transform="matrix(1.0406 0 0 1.0406 -2.0302 -2.0302)"><g>
	<circle fill="#45B39C" cx="50" cy="50" r="48" data-original="#45B39C"/>
	<path opacity="0.1" d="M97.9839478,49.3639526L77.039978,28.4199829c-0.4199829-0.5700073-1.0999756-0.9400024-1.8599854-0.9400024   H72.237915l-4.2880859-4.2880859l-0.1136475-0.1136475l-0.0015869-0.0015869l-0.000061,0.0002441   C67.4501953,22.7215576,66.9408569,22.5,66.3800049,22.5c-1.1900024,0-2.1600342,0.9599609-2.1600342,2.1499634v2.5930176   l-3.9546509-3.9547119l-0.0021362,0.0042725C59.8676147,22.8121948,59.2759399,22.5,58.6099854,22.5   c-1.1900024,0-2.1599731,0.9599609-2.1599731,2.1499634v2.8300171h-9.2095337l-4.1917114-4.1917114   C42.6520996,22.8103638,42.0596313,22.5,41.3900146,22.5c-1.1799927,0-2.1500244,0.9599609-2.1500244,2.1499634v2.5994873   l-3.9611816-3.9611816v0.000061C34.8821411,22.8104248,34.2896729,22.5,33.6199951,22.5   c-1.1799927,0-2.1500244,0.9599609-2.1500244,2.1499634v2.8300171h-6.6499634c-1.2800293,0-2.3200073,1.039978-2.3200073,2.3200073   v45.3800049c0,0.6199951,0.2399902,1.1799927,0.6500244,1.5999756l0.1900024,0.1900024l20.6409912,20.6410522   C45.9541626,97.8580322,47.9598999,98,50,98c26.5097046,0,48-21.4904175,48-48   C98,49.7866821,97.9866943,49.5765991,97.9839478,49.3639526z" data-original="#000000"/>
	<g>
		<path fill="#D5D6DB" d="M22.5,75.1803589C22.5,76.4614868,23.5385742,77.5,24.8195801,77.5h50.3608398    C76.4614258,77.5,77.5,76.4614868,77.5,75.1803589V38.4765625h-55V75.1803589z" data-original="#D5D6DB"/>
		<path fill="#EBF0F3" d="M22.5,73.1803589C22.5,74.4614868,23.5385742,75.5,24.8195801,75.5h50.3608398    C76.4614258,75.5,77.5,74.4614868,77.5,73.1803589V33.7344017h-55V73.1803589z" data-original="#EBF0F3"/>
		<path fill="#E56353" d="M77.5,29.796875c0-1.2811279-1.0385742-2.3196411-2.3195801-2.3196411H24.8195801    c-1.2810059,0-2.3195801,1.0385132-2.3195801,2.3196411v6.9059448h55V29.796875z" data-original="#E56353"/>
		<rect x="22.5" y="36.7028198" fill="#D15241" width="55" height="1.7737427" data-original="#D15241"/>
		<circle fill="#D15241" cx="33.6401482" cy="31.1905861" r="2.5438182" data-original="#D15241"/>
		<circle fill="#D15241" cx="41.3940086" cy="31.1905861" r="2.5438182" data-original="#D15241"/>
		<circle fill="#D15241" cx="66.3750839" cy="31.1905861" r="2.5438182" data-original="#D15241"/>
		<circle fill="#D15241" cx="58.6059914" cy="31.1905861" r="2.5438182" data-original="#D15241"/>
		<path fill="#EBF0F3" d="M33.6248283,22.5c-1.1887436,0-2.1523705,0.9637146-2.1523705,2.1525059v6.5228043    c0,1.1887913,0.9636269,2.1525059,2.1523705,2.1525059c1.1887474,0,2.1525536-0.9637146,2.1525536-2.1525059v-6.5228043    C35.7773819,23.4637146,34.8135757,22.5,33.6248283,22.5z" data-original="#EBF0F3"/>
		<path fill="#EBF0F3" d="M41.3939209,22.5c-1.1887474,0-2.1523743,0.9637146-2.1523743,2.1525059v6.5228043    c0,1.1887913,0.9636269,2.1525059,2.1523743,2.1525059c1.1887436,0,2.1525497-0.9637146,2.1525497-2.1525059v-6.5228043    C43.5464706,23.4637146,42.5826645,22.5,41.3939209,22.5z" data-original="#EBF0F3"/>
		<path fill="#EBF0F3" d="M58.6059036,22.5c-1.1887474,0-2.1523743,0.9637146-2.1523743,2.1525059v6.5228043    c0,1.1887913,0.9636269,2.1525059,2.1523743,2.1525059c1.1887436,0,2.1525497-0.9637146,2.1525497-2.1525059v-6.5228043    C60.7584534,23.4637146,59.7946472,22.5,58.6059036,22.5z" data-original="#EBF0F3"/>
		<path fill="#EBF0F3" d="M66.3749924,22.5c-1.1887436,0-2.1523743,0.9637146-2.1523743,2.1525059v6.5228043    c0,1.1887913,0.9636307,2.1525059,2.1523743,2.1525059s2.1525497-0.9637146,2.1525497-2.1525059v-6.5228043    C68.5275421,23.4637146,67.563736,22.5,66.3749924,22.5z" data-original="#EBF0F3"/>
		<g>
			<rect x="59.8677406" y="41.0961266" fill="#44C4A1" width="5.6020889" height="5.6020889" data-original="#44C4A1"/>
			<rect x="68.3135986" y="41.0961266" fill="#E56353" width="5.6020889" height="5.6020889" data-original="#E56353"/>
			<rect x="26.0843124" y="49.408905" fill="#D5D6DB" width="5.6020889" height="5.6020889" data-original="#D5D6DB"/>
			<rect x="34.5301704" y="49.408905" fill="#D5D6DB" width="5.6020889" height="5.6020889" data-original="#D5D6DB"/>
			<rect x="42.9760284" y="49.408905" fill="#D5D6DB" width="5.6020889" height="5.6020889" data-original="#D5D6DB"/>
			<rect x="51.4218864" y="49.408905" fill="#D5D6DB" width="5.6020889" height="5.6020889" data-original="#D5D6DB"/>
			<rect x="59.8677406" y="49.408905" fill="#44C4A1" width="5.6020889" height="5.6020889" data-original="#44C4A1"/>
			<rect x="68.3135986" y="49.408905" fill="#E56353" width="5.6020889" height="5.6020889" data-original="#E56353"/>
			<rect x="26.0843124" y="57.7216797" fill="#27A2DB" width="5.6020889" height="5.6020889" data-original="#27A2DB" class="active-path" style="fill:#27A2DB"/>
			<rect x="34.5301704" y="57.7216797" fill="#27A2DB" width="5.6020889" height="5.6020889" data-original="#27A2DB" class="active-path" style="fill:#27A2DB"/>
			<rect x="42.9760284" y="57.7216797" fill="#D5D6DB" width="5.6020889" height="5.6020889" data-original="#D5D6DB"/>
			<rect x="51.4218864" y="57.7216797" fill="#D5D6DB" width="5.6020889" height="5.6020889" data-original="#D5D6DB"/>
			<rect x="59.8677406" y="57.7216797" fill="#44C4A1" width="5.6020889" height="5.6020889" data-original="#44C4A1"/>
			<rect x="68.3135986" y="57.7216797" fill="#E56353" width="5.6020889" height="5.6020889" data-original="#E56353"/>
			<rect x="26.0843124" y="66.0344543" fill="#D5D6DB" width="5.6020889" height="5.6020889" data-original="#D5D6DB"/>
			<rect x="34.5301704" y="66.0344543" fill="#D5D6DB" width="5.6020889" height="5.6020889" data-original="#D5D6DB"/>
			<rect x="42.9760284" y="66.0344543" fill="#D5D6DB" width="5.6020889" height="5.6020889" data-original="#D5D6DB"/>
		</g>
	</g>
</g></g> </svg>
