<?xml version="1.0" encoding="iso-8859-1"?>
<!-- Generator: Adobe Illustrator 19.0.0, SVG Export Plug-In . SVG Version: 6.00 Build 0)  -->
<svg version="1.1" id="Capa_1" xmlns="http://www.w3.org/2000/svg" xmlns:xlink="http://www.w3.org/1999/xlink" x="0px" y="0px"
	 viewBox="0 0 384 384" style="enable-background:new 0 0 384 384;" xml:space="preserve">
<circle style="fill:#334D5C;" cx="192" cy="192" r="192"/>
<path style="opacity:0.1;enable-background:new    ;" d="M384,192c0-2.602-0.094-5.181-0.196-7.757l-90.756-90.756l-0.109,0.068
	c-0.685-0.751-1.308-1.556-2.059-2.245c0-0.04,0-0.04,0-0.04c-0.96-0.88-2-1.72-3.04-2.52c-5.76-4.24-12.84-6.76-20.52-6.76
	c-19.12,0-34.64,15.52-34.64,34.68c0,3.24,0.48,6.36,1.32,9.32l-64,35.44c-0.16-0.16-0.32-0.32-0.48-0.52
	c-0.68-0.8-1.4-1.56-2.12-2.36c-0.56-0.6-1.08-1.24-1.68-1.8c-1.36-1.32-2.8-2.6-4.28-3.76c-4.16-3.24-8.84-5.8-13.92-7.56
	c-5.08-1.8-10.52-2.76-16.2-2.76c-27.24,0-49.32,22.08-49.32,49.32c0,14.878,6.616,28.142,17.027,37.161l147.069,147.07
	C325.786,352.855,384,279.248,384,192z"/>
<g>
	<path style="fill:#FFFFFF;" d="M177.735,208.561c-1.398,3.916-3.224,7.628-5.513,11.016c-0.697,1.032-1.461,2.012-2.232,2.986
		l63.992,35.445c1.476-5.286,4.169-10.049,7.764-13.992L177.735,208.561z"/>
	<path style="fill:#FFFFFF;" d="M175.708,170.597c0.591,1.224,1.136,2.47,1.627,3.748c0.139,0.362,0.29,0.716,0.421,1.081
		l63.989-35.442c-3.595-3.944-6.288-8.706-7.764-13.992l-63.992,35.444c2.002,2.529,3.753,5.257,5.234,8.153
		C175.392,169.92,175.545,170.261,175.708,170.597z"/>
</g>
<g>
	<path style="fill:#44C4A1;" d="M290.9,91.291c2.896,2.686,5.33,5.859,7.176,9.388C296.234,97.144,293.794,93.981,290.9,91.291z"/>
	<path style="fill:#44C4A1;" d="M298.261,101.064c0.495,0.974,0.94,1.976,1.342,3C299.202,103.038,298.754,102.039,298.261,101.064z
		"/>
	<path style="fill:#44C4A1;" d="M299.958,105.033c0.31,0.864,0.581,1.744,0.822,2.638
		C300.54,106.776,300.267,105.898,299.958,105.033z"/>
	<path style="fill:#44C4A1;" d="M287.822,88.746c1.069,0.786,2.092,1.631,3.062,2.531C289.914,90.376,288.892,89.532,287.822,88.746
		z"/>
	<path style="fill:#44C4A1;" d="M299.276,130.156c1.754-4.147,2.724-8.707,2.724-13.492c0-1.336-0.093-2.648-0.24-3.944
		c0.148,1.296,0.24,2.608,0.24,3.944C302,121.449,301.03,126.008,299.276,130.156z"/>
	<path style="fill:#44C4A1;" d="M257.578,149.908c-3.042-0.902-5.913-2.206-8.549-3.852c19.387-13.712,34.034-34.104,38.792-57.312
		C282.078,84.524,275.011,82,267.337,82c-19.144,0-34.662,15.519-34.662,34.663c0,3.236,0.477,6.356,1.306,9.329
		c1.476,5.286,4.17,10.048,7.764,13.992C245.966,144.613,251.405,148.099,257.578,149.908z"/>
	<path style="fill:#44C4A1;" d="M261.81,150.844c-1.337-0.218-2.656-0.493-3.937-0.86
		C259.156,150.349,260.471,150.629,261.81,150.844z"/>
	<path style="fill:#44C4A1;" d="M289.385,143.411c4.28-3.532,7.698-8.071,9.891-13.255
		C297.084,135.339,293.666,139.879,289.385,143.411z"/>
	<path style="fill:#44C4A1;" d="M267.325,151.325c-1.52,0-3.007-0.129-4.473-0.322C264.32,151.194,265.806,151.325,267.325,151.325z
		"/>
	<path style="fill:#44C4A1;" d="M301.085,108.856c0.207,0.894,0.365,1.806,0.502,2.725
		C301.451,110.661,301.291,109.751,301.085,108.856z"/>
</g>
<g>
	<path style="fill:#FCD462;" d="M254.866,299.65c-0.876-0.342-1.738-0.713-2.577-1.123
		C253.132,298.934,253.988,299.311,254.866,299.65z"/>
	<path style="fill:#FCD462;" d="M257.713,300.617c-0.769-0.224-1.526-0.48-2.272-0.757
		C256.19,300.134,256.942,300.395,257.713,300.617z"/>
	<path style="fill:#FCD462;" d="M282.289,298.573c-0.758,0.364-1.526,0.707-2.313,1.015
		C280.764,299.28,281.531,298.937,282.289,298.573z"/>
	<path style="fill:#FCD462;" d="M299.003,253.276c0.44,0.98,0.822,1.992,1.17,3.018C299.827,255.266,299.44,254.259,299.003,253.276
		z"/>
	<path style="fill:#FCD462;" d="M263.971,301.83c-0.479-0.047-0.946-0.132-1.418-0.198
		C263.026,301.698,263.492,301.784,263.971,301.83z"/>
	<path style="fill:#FCD462;" d="M260.756,301.358c-0.645-0.126-1.277-0.287-1.909-0.448
		C259.48,301.068,260.11,301.233,260.756,301.358z"/>
	<path style="fill:#FCD462;" d="M302,267.337c0,10.768-4.91,20.39-12.615,26.748C297.09,287.727,302,278.106,302,267.337
		c0-1.233-0.069-2.449-0.194-3.648C301.932,264.887,302,266.104,302,267.337z"/>
	<path style="fill:#FCD462;" d="M290.885,241.976c3.399,3.155,6.171,6.975,8.097,11.256c-5.406-12.107-17.528-20.558-31.645-20.558
		c-10.15,0-19.252,4.39-25.591,11.342c-3.596,3.944-6.289,8.706-7.764,13.992c-0.83,2.972-1.307,6.092-1.307,9.329
		c0,13.719,7.99,25.54,19.551,31.159c-2.722-1.336-5.245-3.018-7.514-4.986C265.576,282.394,282.673,263.94,290.885,241.976z"/>
	<path style="fill:#FCD462;" d="M300.298,256.636c0.304,0.927,0.548,1.88,0.773,2.84C300.848,258.515,300.6,257.565,300.298,256.636
		z"/>
	<path style="fill:#FCD462;" d="M301.236,260.118c0.195,0.916,0.33,1.854,0.451,2.794
		C301.566,261.971,301.431,261.034,301.236,260.118z"/>
</g>
<g>
	<path style="fill:#E56353;" d="M179.398,181.103c0.281,1.239,0.491,2.504,0.677,3.777
		C179.89,183.607,179.678,182.344,179.398,181.103z"/>
	<path style="fill:#E56353;" d="M125.642,240.971c1.867,0.214,3.756,0.352,5.681,0.352c4.67,0,9.17-0.692,13.451-1.905
		c-4.281,1.212-8.781,1.905-13.451,1.905C129.399,241.322,127.508,241.187,125.642,240.971z"/>
	<path style="fill:#E56353;" d="M177.878,175.828c0.408,1.169,0.762,2.363,1.082,3.571
		C178.641,178.19,178.284,176.999,177.878,175.828z"/>
	<path style="fill:#E56353;" d="M118.551,239.592c-1.411-0.38-2.8-0.816-4.158-1.316
		C115.753,238.774,117.138,239.214,118.551,239.592z"/>
	<path style="fill:#E56353;" d="M158.9,232.899c-3.584,2.421-7.525,4.342-11.696,5.762
		C151.375,237.241,155.316,235.32,158.9,232.899z"/>
	<path style="fill:#E56353;" d="M124.123,240.739c-1.385-0.206-2.757-0.45-4.102-0.768
		C121.368,240.287,122.736,240.535,124.123,240.739z"/>
	<path style="fill:#E56353;" d="M175.223,169.589c-1.482-2.896-3.232-5.624-5.234-8.153c-2.494-3.152-5.368-5.976-8.548-8.435
		C167.17,157.432,171.888,163.098,175.223,169.589z"/>
	<path style="fill:#E56353;" d="M178.741,205.451c1.212-4.281,1.905-8.781,1.905-13.451c0-1.866-0.124-3.7-0.326-5.512
		c0.203,1.81,0.326,3.646,0.326,5.512C180.646,196.67,179.953,201.17,178.741,205.451z"/>
	<path style="fill:#E56353;" d="M161.44,153c-8.336-6.447-18.763-10.323-30.117-10.323C104.083,142.677,82,164.76,82,192
		c0,20.895,13.015,38.713,31.362,45.9c-1.685-0.662-3.336-1.394-4.926-2.23C139.178,219.99,162.13,188.445,161.44,153z"/>
	<path style="fill:#E56353;" d="M172.222,219.577c2.289-3.388,4.115-7.1,5.513-11.016c0.081-0.228,0.171-0.451,0.249-0.68
		C176.564,212.052,174.644,215.992,172.222,219.577z"/>
	<path style="fill:#E56353;" d="M177.335,174.345c-0.491-1.278-1.036-2.524-1.627-3.748
		C176.301,171.818,176.843,173.069,177.335,174.345z"/>
</g>
<path style="fill:#3EA69B;" d="M249.028,146.057c2.636,1.646,5.507,2.95,8.549,3.852c0.097,0.029,0.198,0.048,0.296,0.076
	c1.281,0.367,2.6,0.642,3.937,0.86c0.347,0.057,0.692,0.113,1.042,0.159c1.466,0.193,2.953,0.321,4.473,0.322
	c0.004,0,0.008,0.001,0.012,0.001c8.376,0,16.058-2.971,22.049-7.916c4.28-3.532,7.698-8.072,9.891-13.255
	c1.754-4.147,2.724-8.706,2.724-13.492c0-1.336-0.092-2.648-0.24-3.944c-0.044-0.384-0.117-0.757-0.174-1.138
	c-0.137-0.919-0.295-1.831-0.502-2.725c-0.093-0.399-0.198-0.791-0.304-1.185c-0.241-0.894-0.513-1.774-0.822-2.638
	c-0.116-0.325-0.23-0.649-0.355-0.97c-0.402-1.024-0.847-2.026-1.342-3c-0.064-0.127-0.12-0.259-0.185-0.385
	c-1.847-3.528-4.28-6.702-7.176-9.388c-0.005-0.005-0.01-0.009-0.015-0.014c-0.971-0.9-1.993-1.746-3.062-2.531
	c-0.001-0.001-0.001-0.002-0.001-0.002l-0.001,0C283.062,111.952,268.415,132.344,249.028,146.057z"/>
<path style="fill:#F6C358;" d="M302,267.337c0-1.234-0.068-2.45-0.194-3.648c-0.028-0.263-0.085-0.515-0.118-0.776
	c-0.121-0.941-0.256-1.879-0.451-2.794c-0.047-0.218-0.115-0.426-0.165-0.642c-0.226-0.961-0.47-1.913-0.773-2.84
	c-0.038-0.116-0.086-0.227-0.125-0.342c-0.348-1.026-0.73-2.037-1.17-3.018c-0.007-0.014-0.014-0.029-0.021-0.044
	c-1.926-4.281-4.698-8.101-8.097-11.256c-8.212,21.964-25.309,40.417-46.173,51.534c2.268,1.968,4.792,3.65,7.514,4.986
	c0.022,0.01,0.043,0.02,0.064,0.03c0.839,0.41,1.701,0.781,2.577,1.123c0.19,0.074,0.384,0.14,0.575,0.211
	c0.746,0.276,1.503,0.532,2.272,0.757c0.374,0.11,0.756,0.195,1.134,0.292c0.632,0.161,1.263,0.322,1.909,0.448
	c0.591,0.115,1.195,0.19,1.797,0.274c0.472,0.066,0.939,0.151,1.418,0.198c1.107,0.108,2.229,0.17,3.366,0.17
	c4.466,0,8.719-0.874,12.639-2.412c0.788-0.308,1.555-0.651,2.313-1.015c2.546-1.222,4.941-2.709,7.096-4.488
	C297.09,287.727,302,278.106,302,267.337z"/>
<path style="fill:#D15241;" d="M177.984,207.881c0.273-0.802,0.525-1.61,0.757-2.43c1.212-4.281,1.905-8.781,1.905-13.451
	c0-1.866-0.124-3.701-0.326-5.512c-0.06-0.544-0.167-1.07-0.245-1.608c-0.186-1.273-0.396-2.538-0.677-3.777
	c-0.13-0.575-0.287-1.137-0.438-1.704c-0.32-1.208-0.674-2.402-1.082-3.571c-0.046-0.132-0.075-0.272-0.122-0.403
	c-0.132-0.365-0.282-0.719-0.421-1.081c-0.492-1.276-1.034-2.526-1.627-3.748c-0.163-0.336-0.316-0.676-0.485-1.008
	c-3.335-6.491-8.053-12.158-13.782-16.588l0-0.001l0,0c0.69,35.445-22.262,66.99-53.004,82.67c1.59,0.835,3.241,1.568,4.926,2.23
	c0.34,0.134,0.686,0.251,1.03,0.377c1.358,0.5,2.747,0.936,4.158,1.316c0.488,0.132,0.976,0.261,1.47,0.378
	c1.346,0.318,2.718,0.562,4.102,0.768c0.508,0.075,1.007,0.172,1.519,0.232c1.866,0.216,3.756,0.352,5.681,0.352
	c4.67,0,9.17-0.692,13.451-1.905c0.82-0.232,1.628-0.484,2.43-0.757c4.171-1.42,8.112-3.34,11.696-5.762
	c4.216-2.848,7.939-6.356,11.09-10.336c0.771-0.974,1.536-1.954,2.232-2.986C174.644,215.992,176.564,212.052,177.984,207.881z"/>
<g>
</g>
<g>
</g>
<g>
</g>
<g>
</g>
<g>
</g>
<g>
</g>
<g>
</g>
<g>
</g>
<g>
</g>
<g>
</g>
<g>
</g>
<g>
</g>
<g>
</g>
<g>
</g>
<g>
</g>
</svg>
