<?xml version="1.0" encoding="iso-8859-1"?>
<!-- Generator: Adobe Illustrator 19.0.0, SVG Export Plug-In . SVG Version: 6.00 Build 0)  -->
<svg version="1.1" id="Capa_1" xmlns="http://www.w3.org/2000/svg" xmlns:xlink="http://www.w3.org/1999/xlink" x="0px" y="0px"
	 viewBox="0 0 384 384" style="enable-background:new 0 0 384 384;" xml:space="preserve">
<circle style="fill:#EFC84A;" cx="192" cy="192" r="192"/>
<path style="opacity:0.1;enable-background:new    ;" d="M384,192c0-7.88-0.53-15.632-1.453-23.263L299.8,85.99
	c-0.28-0.28-0.64-0.56-1.04-0.8c-0.16-0.04-0.32-0.12-0.44-0.2c-0.32-0.12-0.6-0.24-0.92-0.36c-0.2-0.04-0.44-0.12-0.68-0.16
	c-0.32-0.08-0.64-0.16-1-0.2c-0.28-0.04-0.56-0.08-0.84-0.08c-0.36-0.04-0.72-0.08-1.12-0.08c-0.32-0.04-0.64-0.04-1-0.04
	c-0.4,0.04-0.8,0.04-1.24,0.08c-0.4,0-0.76,0-1.12,0.04c-0.44,0.04-0.92,0.12-1.4,0.16c-0.4,0.04-0.8,0.08-1.24,0.16
	c-0.48,0.08-0.96,0.16-1.48,0.24c-0.48,0.08-0.92,0.16-1.44,0.28c-0.28,0.04-0.6,0.12-0.88,0.2c-1.32,0.24-2.68,0.6-4.08,0.96
	c-0.4,0.08-0.8,0.2-1.2,0.32c-0.68,0.16-1.44,0.4-2.16,0.6c-0.44,0.16-0.84,0.28-1.28,0.4c-0.76,0.24-1.52,0.48-2.32,0.72
	c-0.44,0.16-0.88,0.32-1.32,0.48c-0.8,0.24-1.64,0.52-2.44,0.84c-0.44,0.16-0.92,0.32-1.36,0.481c-0.88,0.32-1.72,0.64-2.6,0.96
	c-0.44,0.16-0.88,0.36-1.32,0.52c-0.92,0.36-1.84,0.72-2.8,1.12c-0.36,0.12-0.72,0.28-1.08,0.44c-1.04,0.439-2.08,0.88-3.16,1.319
	c-13.72,5.92-29.36,14.16-44.96,24.2c-15.56,10.04-31.12,21.88-44.64,34.96c-8.44,8.16-15.72,16-21.92,23.56
	c-16.92-6.76-38.08-2.68-53.24,12c-4.2,4.08-7.56,8.6-10.16,13.4l31.315,31.315c-8.439,13.215-15.515,47.725-15.515,47.725
	l102.25,102.249C302.308,379.615,384,295.366,384,192z"/>
<g>
	<path style="fill:#64798A;" d="M176.209,299.932c4.882-2.437,9.537-5.636,13.722-9.687c19.952-19.311,22.003-49.557,4.581-67.557
		l-23.853,23.086C184.427,259.998,185.986,281.852,176.209,299.932z"/>
	<path style="fill:#64798A;" d="M81.932,202.526c2.595-4.8,5.944-9.348,10.13-13.399c19.952-19.311,50.249-20.374,67.671-2.374
		l-23.852,23.086C122.112,195.615,100.32,193.344,81.932,202.526z"/>
</g>
<path style="fill:#EBF0F3;" d="M162.617,260.68c18.054-5.873,40.354-20.217,65.333-44.394
	c48.46-46.904,83.582-118.166,71.842-130.296c-9.77-10.095-84.11,20.648-132.57,67.552c-24.98,24.178-40.043,45.998-46.502,63.85
	L162.617,260.68z"/>
<ellipse style="fill:#E1E6E9;" cx="234.384" cy="149.325" rx="22.128" ry="22.128"/>
<ellipse style="fill:#27A2DB;" cx="234.383" cy="149.324" rx="16.288" ry="16.288"/>
<path style="fill:#FCD462;" d="M127.462,224.358c-4.244,0.915-8.297,2.963-11.646,6.205c-9.551,9.244-18.083,50.997-18.083,50.997
	s42.008-7.165,51.56-16.41c3.349-3.242,5.529-7.226,6.582-11.438L127.462,224.358z"/>
<path style="fill:#E56353;" d="M130.975,227.988c-3.195,0.689-6.246,2.23-8.767,4.67c-7.19,6.959-13.612,38.388-13.612,38.388
	s31.622-5.394,38.811-12.352c2.521-2.44,4.162-5.439,4.955-8.609L130.975,227.988z"/>
<path style="fill:#FCD462;" d="M135.163,232.315c-1.943,0.419-3.799,1.357-5.333,2.841c-4.374,4.233-8.281,23.352-8.281,23.352
	s19.236-3.281,23.61-7.514c1.534-1.484,2.532-3.309,3.014-5.237L135.163,232.315z"/>
<path style="fill:#E56353;" d="M299.792,85.99c-4.315-4.458-21.231-0.942-42.942,8.404l33.954,35.08
	C301.011,108.244,304.976,91.346,299.792,85.99z"/>
<path style="fill:#FCD462;" d="M290.803,129.474l-33.954-35.08c-1.492,0.643-3.026,1.338-4.563,2.036l36.296,37.499
	C289.344,132.431,290.102,130.934,290.803,129.474z"/>
<g>
</g>
<g>
</g>
<g>
</g>
<g>
</g>
<g>
</g>
<g>
</g>
<g>
</g>
<g>
</g>
<g>
</g>
<g>
</g>
<g>
</g>
<g>
</g>
<g>
</g>
<g>
</g>
<g>
</g>
</svg>
