<?xml version="1.0"?>
<svg xmlns="http://www.w3.org/2000/svg" xmlns:x="http://ns.adobe.com/Extensibility/1.0/" xmlns:i="http://ns.adobe.com/AdobeIllustrator/10.0/" xmlns:graph="http://ns.adobe.com/Graphs/1.0/" id="Layer_1" enable-background="new 0 0 140 140" height="512px" viewBox="0 0 140 140" width="512px"><g transform="matrix(1.09369 0 0 1.09369 -6.55796 -6.55796)"><path d="m134 70c0 35.3496094-28.6499634 64-64 64-5.25 0-10.3399658-.6303711-15.2199707-1.8300781-28-6.8203125-48.7800293-32.0703125-48.7800293-62.1699219 0-35.340332 28.6600342-64 64-64 31.7600098 0 58.1099854 23.1298828 63.1300049 53.449707.5700073 3.4301758.8699951 6.959961.8699951 10.550293z" fill="#fed35b" data-original="#FED35B" style="fill:#FED35B"/><path d="m134 70c0 35.3496094-28.6499634 64-64 64-5.25 0-10.3399658-.6303711-15.2199707-1.8300781l-19.7200317-19.7202149c1.6500244-.2197266 3.0100098-.5498047 4.0300293-.8398438 1.8399658-.5297852 2.8699951-1.0297852 3.1699829-1.1801758 1.0800171-.5400391 1.7299805-1.0200195 2.039978-1.2597656.4800415-.3798828.8500366-.7402344 1.1199951-1.0102539-3.9499512-3.9399414-7.8899536-7.8901367-11.8399658-11.8295898l-.0499878-.0400391c-.0800171-.0703125-.1600342-.1503906-.2300415-.2304688-.1399536-.1699219-.2699585-.3598633-.3299561-.5996094-.0599976-.2299805-.0300293-.4902344.0700073-.7001953.1999512-.4296875.5599976-.6899414.8999634-.9296875.3500366-.2304688.710022-.4204102 1.0900269-.5800781.7699585-.3203125 1.5799561-.5102539 2.3999634-.5600586 1.6400146-.0800781 3.2800293.1401367 4.8099976.7299805.460022.1699219 4.2800293 2.7397461 3.8200073 3.1796875.75-.409668 1.6600342-1 2.5900269-1.8300781 1.1300049-1.0097656 1.8999634-2.0297852 2.4099731-2.8295898-2.9899902-3-5.9899902-6-8.9899902-9l.0100098-.0102539c.2199707-.2299805 3.75-3.9599609 6.1799927-5.8496094-3.2500001-4.5800781-13.5700075-20.4204101-10.5499879-32.590332 2.5800171-10.3598633 13.0700073-16.6801758 23.4199829-14.1000977 3.7000122.9101562 6.8800049 2.840332 9.3200073 5.4003906l.039978.0400391 7.210022 7.2099609c-.2800293-1.1801758-.4400024-2.3701172-.4299927-3.550293.0299683-8.2202148 6.7299805-14.8701171 14.960022-14.830078 4.039978.0200195 7.6899414 1.6401367 10.3599854 4.2602539l.1300049.1298828 30.4099731 30.3999023c.5700073 3.4301758.8699951 6.959961.8699951 10.550293z" opacity=".1" data-original="#000000" style="fill:#000000"/><path d="m92.0827637 62.0595322c.6792603.0812378 1.2885513.3235397 1.8540726.6327477.5650101.3105965 1.0869904.6920242 1.5564041 1.1310921.942131.8727188 1.6454697 2.0199966 1.951767 3.2777252.2985001 1.2496033.2750168 2.5549011.0256042 3.798027-.2592926 1.2477646-.7361526 2.4304886-1.3531723 3.5319672-1.2251663 2.1936493-3.1546021 4.0784836-5.5646896 4.9244537-1.1950607.4223251-2.4724045.5934525-3.7300415.5371933-.6246643-.0238724-1.2633286-.0824356-1.8784943-.2536163-.3071976-.0879288-.6163254-.1953278-.8947296-.3910446-.1373138-.0984192-.2689438-.2218323-.3561707-.3860016-.0900116-.162529-.1118622-.3648148-.0741882-.5387878.0715866-.356041.2888489-.619194.5006943-.8575974.2189102-.2364731.4589233-.444931.7150345-.6343613.5119553-.377594 1.0859528-.6687317 1.6908493-.8601532 1.2117004-.3556595 2.4850922-.489769 3.7382202-.329155 2.5309753.2742081 4.7544327 2.1297073 5.5951462 4.4988251.878624 2.3692932.3504105 5.1566849-1.2652588 7.0709686-.8054428.9606247-1.8257828 1.7068634-2.8825989 2.3592911-1.0641327.6483612-2.1969757 1.1759796-3.3550262 1.6296844 1.1540451-.4639587 2.2813797-1.0013351 3.3377075-1.6579361 1.0482635-.6598053 2.0600433-1.4149246 2.8485489-2.3729706 1.584816-1.9118881 2.0752335-4.6673508 1.1923294-6.9832077-.8480148-2.3182297-3.0343704-4.1041794-5.4954834-4.3476257-1.2188187-.1465683-2.4730453-.0022583-3.6422729.3525772-.5798645.189003-1.1278076.4734344-1.6139297.8387604-.2424316.1824112-.4723129.3862381-.6739731.6082611-.1960983.2203979-.3832169.4696579-.4296188.7315445-.061821.2623215.0925751.4961548.3274231.6547852.232811.1621475.5217438.2636414.8112869.3427734.5874252.1574097 1.1970596.2090225 1.8144226.2275543 1.2276077.0445023 2.4594879-.1327667 3.6087723-.5492325 2.3137436-.8343887 4.1610565-2.6654968 5.3339157-4.8060532.5895996-1.0722809 1.0428467-2.2297134 1.2798996-3.4223557.2294846-1.1953201.2387848-2.4367371-.0522232-3.6093521-.294342-1.1607437-.9510651-2.2178345-1.841156-3.0292892-.4425049-.4071083-.9360504-.7609825-1.4637756-1.0453835-.5246887-.2843857-1.0997391-.4965858-1.6587753-.5584602z" fill="#304551" data-original="#304551" style="fill:#304551"/><path d="m107.0634003 39.622509c-.0507278 11.4285316-15.0045166 23.1481667-15.0045166 23.1481667s-14.844368-11.8518867-14.7936478-23.2804184c.036499-8.2247391 6.7380524-14.8669415 14.9627914-14.8304386 8.2297974.0365257 14.871872 6.7379493 14.835373 14.9626903z" fill="#dd584d" data-original="#DD584D" style="fill:#DD584D"/><path d="m80.3709793 39.5040436c-.2059479-1.545784-.0008774-3.1636734.549675-4.6623764.5422363-1.5055618 1.4448166-2.8827782 2.5803833-4.0232811 1.14991-1.1265373 2.53508-2.0168571 4.0455246-2.5460873 1.5036621-.5376015 3.1238022-.7276726 4.6678238-.506876-1.5431595.2122765-3.0100937.6182365-4.3610306 1.2541981-1.3453903.6402836-2.5802536 1.4886837-3.6239014 2.5335541-1.0552216 1.0335712-1.9146805 2.2608509-2.567131 3.6006336-.6481857 1.3454895-1.0669022 2.8091392-1.2913437 4.350235z" fill="#fff" opacity=".15" data-original="#FFF" style="fill:#FFF"/><path d="m91.9159927 61.5066986s4.5138397 4.8383408 4.4918137 9.8003693c0 0-1.7865524.093338-4.3786316-1.8422546s-3.8086243-1.6371918-3.8086243-1.6371918 2.2455826-5.1031304 3.6954422-6.3209229z" fill="#dd584d" data-original="#DD584D" style="fill:#DD584D"/><path d="m48.7117691 76.8555908c.8313904.3111496 1.5250778.8038559 2.1430244 1.3674622.6168785.5652008 1.1577415 1.2064743 1.6146164 1.9042664.9195786 1.3897705 1.453743 3.0522919 1.4534035 4.7320633-.0076714 1.6671295-.4383888 3.3055267-1.1348343 4.7961273-.7103195 1.4934006-1.6749573 2.8379517-2.7913284 4.0370026-2.2186852 2.3890991-5.2303696 4.1724396-8.5287781 4.4983597-1.6364136.1652069-3.2993774-.0115814-4.8676186-.4689636-.7801895-.2220612-1.5673752-.4921494-2.2903252-.8970032-.3602638-.205246-.7169876-.4356384-1.007843-.7679367-.1428604-.166275-.2708893-.3623199-.33041-.5960846-.0635338-.2325668-.0289192-.4943085.0720367-.7020645.1996651-.4268723.5544319-.6918716.8947678-.92733.3486557-.2308655.7153053-.4199142 1.0963974-.5800247.761467-.3187256 1.574585-.5093765 2.3960152-.5648193 1.6369019-.0760422 3.2835083.1461792 4.8139954.733757 3.1065979 1.1234589 5.3395691 4.1459808 5.6714554 7.3911285.3796272 3.2570038-1.1428528 6.6088181-3.7680092 8.5257034-1.3106384.9635773-2.826313 1.5908279-4.3591576 2.0886078-1.5408058.4903946-3.1311455.807457-4.7305374 1.0235977 1.5975037-.2302933 3.1838837-.5613556 4.7173958-1.0645447 1.5243149-.509697 3.0319328-1.1507797 4.3204193-2.1163101 2.5855331-1.9233475 4.0505447-5.246521 3.6491013-8.4374771-.3567314-3.1832275-2.5643044-6.1066818-5.5922661-7.1698761-1.4915543-.5593185-3.1171303-.7628021-4.7002449-.6747513-.7891273.0600967-1.5673294.2502975-2.2924576.5614929-.3616867.1554718-.7141457.3417969-1.0366096.5597305-.314949.2176132-.6274529.47435-.7664299.7902527-.1585503.3117218-.0357552.6539688.2115822.9261169.243679.2759781.5767593.4927216.9174728.6814499.6922112.3789673 1.4449272.6313705 2.2175484.8444519 1.5340042.4333344 3.1415329.5884094 4.718441.4165268 3.1733856-.3409271 6.0650253-2.0817871 8.2014542-4.4200134 1.0728264-1.1706696 1.9999161-2.4905853 2.6652679-3.9213257.6566315-1.4364471 1.049839-2.9986725 1.0432968-4.5664291-.0143929-1.553833-.5175056-3.0883408-1.3903008-4.3848724-.4327774-.649231-.9462585-1.2470322-1.5241737-1.7677536-.5740967-.5197601-1.2338676-.9639969-1.9196434-1.2137909z" fill="#304551" data-original="#304551" style="fill:#304551"/><path d="m75.2385788 53.8088875c-3.5758743 14.3926048-26.0298195 24.5725746-26.0298195 24.5725746s-15.0725937-19.503521-11.4967194-33.8961258c2.5734406-10.3578873 13.063343-16.6725006 23.4212303-14.0990601 10.3642502 2.5750199 16.6787491 13.064724 14.1053086 23.4226113z" fill="#467082" data-original="#467082" style="fill:#467082"/><path d="m40.8776512 44.8204346c.2153702-2.0120888.9710808-3.9887772 2.1257133-5.7090416 1.1462593-1.7314682 2.7073746-3.1903954 4.4894753-4.2793007 1.7958946-1.0668869 3.8158035-1.7636757 5.8826828-1.9667358 2.0608978-.2156982 4.1618576.0425377 6.0405807.7953682-2.0107231-.2065849-3.9848671-.1455612-5.8834457.2410736-1.8929253.3937874-3.7104454 1.0839157-5.3472786 2.0804977-1.6479568.9787788-3.1086273 2.2619324-4.3428955 3.7505302-1.2306404 1.4971009-2.2082939 3.2136879-2.9648323 5.0876084z" fill="#fff" opacity=".15" data-original="#FFF" style="fill:#FFF"/><path d="m49.5937119 76.1888428s3.2815857 7.4054031 1.7290154 13.6543732c0 0-2.2810287-.4313202-4.9541245-3.6680984s-4.2985077-3.2344131-4.2985077-3.2344131 5.3215255-5.6621019 7.5236168-6.7518617z" fill="#467082" data-original="#467082" style="fill:#467082"/><path d="m73.0180969 90.4972839c.6826553-.0443878 1.3259888.0823746 1.93853.2829208.6122894.2020035 1.1952438.481514 1.7370453.8273087 1.0858765.6856613 1.9872055 1.6849213 2.5184021 2.8654022.5220413 1.1739197.7377167 2.4614868.7199097 3.7292633-.0266724 1.2741394-.2791443 2.5241394-.6842728 3.719902-.8032227 2.3807449-2.3553391 4.5867157-4.570015 5.8592606-1.097641.6338043-2.3221359 1.0356903-3.56884 1.210434-.6184921.0907898-1.2570953.1500397-1.8931961.0942764-.3180923-.0302505-.641655-.0792923-.9511642-.2207794-.1529922-.0716476-.304985-.1688995-.4207687-.3143387-.1182175-.1433258-.1767044-.3382034-.1714859-.5161285.005249-.3631287.1707077-.6615829.3353653-.9347153.1719666-.2725296.3697968-.5213699.586937-.7544556.4342499-.4648666.9453125-.8560867 1.504982-1.1549301 1.1261978-.5712967 2.353569-.9360809 3.6149368-1.0073929 2.5384369-.1933899 5.0637817 1.2240829 6.3236694 3.3994522 1.2971954 2.1685944 1.2877655 5.0055771.0495224 7.1830978-.6161423 1.0917511-1.4827576 2.0120392-2.4024048 2.8467789-.9275818.8320694-1.9448013 1.5580063-3.0003128 2.215889 1.0497055-.6672287 2.0597153-1.4017487 2.9781189-2.2405014.9098816-.840416 1.7664719-1.767868 2.3664169-2.8539886 1.2083588-2.1695328 1.18647-4.9682083-.1051559-7.0834885-1.2577591-2.1239929-3.7339172-3.4798889-6.1980286-3.2690353-1.2250671.0788574-2.4317322.4501572-3.5163345 1.012886-.5355072.2918777-1.022171.6717377-1.4332657 1.1198196-.2049713.2236786-.3936996.4661179-.5513458.721283-.1524658.2525558-.2908325.5318298-.2885513.7977829-.0127945.2692108.1817703.4708557.4416733.583847.2585449.1168365.5611725.163765.8603058.188591.606308.0473022 1.2150879-.0134735 1.8254242-.1081772 1.2150421-.180809 2.3937073-.5804138 3.4474258-1.2000885 2.1220779-1.2435379 3.6032715-3.3816681 4.3647919-5.7006454.3835068-1.1620407.6173859-2.3828506.6322861-3.598732.006958-1.2171326-.2109756-2.4393005-.7115707-3.5389023-.5017014-1.0873184-1.3407135-2.0064468-2.364212-2.6413956-.5095062-.3192902-1.0594635-.5769196-1.6303024-.7599869-.5678558-.183609-1.17202-.2870407-1.7329407-.2456131z" fill="#304551" data-original="#304551" style="fill:#304551"/><path d="m83.641777 65.698555c2.0406494 11.2449875-10.5170746 25.5022354-10.5170746 25.5022354s-16.7618675-8.9365692-18.8025169-20.1815491c-1.4685898-8.0926513 3.9048958-15.8486366 11.9975395-17.3172226 8.0976258-1.46949 15.8534623 3.9038887 17.322052 11.9965363z" fill="#4da0dc" data-original="#4DA0DC" class="active-path" style="fill:#4DA0DC"/><path d="m57.3780479 70.4646835c-.4852295-1.4820328-.5795593-3.1101303-.3124428-4.6842575.2576866-1.5793457.893116-3.098423 1.8009033-4.4274025.9244385-1.3178711 2.1233826-2.4465446 3.5115395-3.2431412 1.3799477-.8035774 2.9379921-1.2868042 4.4963417-1.3521652-1.4782867.4909706-2.8462143 1.1584129-4.0580254 2.0307617-1.2055702.8755798-2.2644081 1.9355469-3.0993195 3.1536942-.8483582 1.2091522-1.4688187 2.5729408-1.8651886 4.0094643-.3911284 1.4413528-.5350455 2.9569015-.4738082 4.5130462z" fill="#fff" opacity=".15" data-original="#FFF" style="fill:#FFF"/><path d="m73.0247574 90.2061996s5.050972 3.7091141 5.9369812 8.5914536c0 0-1.7393417.4185562-4.6417465-1.010231-2.9024124-1.4287949-4.0438385-.9128952-4.0438385-.9128952s1.5459594-5.2058716 2.7486038-6.6683274z" fill="#4da0dc" data-original="#4DA0DC" class="active-path" style="fill:#4DA0DC"/></g> </svg>
