<?xml version="1.0" encoding="iso-8859-1"?>
<!-- Generator: Adobe Illustrator 19.0.0, SVG Export Plug-In . SVG Version: 6.00 Build 0)  -->
<svg version="1.1" id="Capa_1" xmlns="http://www.w3.org/2000/svg" xmlns:xlink="http://www.w3.org/1999/xlink" x="0px" y="0px"
	 viewBox="0 0 491.52 491.52" style="enable-background:new 0 0 491.52 491.52;" xml:space="preserve">
<circle style="fill:#EFC84A;" cx="245.76" cy="245.76" r="245.76"/>
<path style="fill:#E1E6E9;" d="M345.43,104.96c-6.553,0-11.866,5.309-11.866,11.86v177.056c0,6.551,5.313,11.86,11.866,11.86
	c6.554,0,11.866-5.31,11.866-11.86V116.82C357.296,110.269,351.984,104.96,345.43,104.96z"/>
<path style="fill:#FFFFFF;" d="M333.58,115.328v180.04c0,0-64.05-44.675-126.534-53.655v-72.686
	C269.53,160.048,333.58,115.328,333.58,115.328z"/>
<path style="fill:#64798A;" d="M207.029,273.576h-11.524v44.185h11.524c4.807,0,8.703-3.895,8.703-8.7v-26.785
	C215.733,277.471,211.836,273.576,207.029,273.576z"/>
<path style="fill:#EBF0F3;" d="M225.385,377.271c-0.417,5.357-5.296,9.289-10.671,9.289h-49.152c-4.042,0-7.486-2.93-8.134-6.917
	l-21.224-130.682h54.619l22.348,117.45h2.145c2.77,0,5.319,1.117,7.151,2.949C224.476,371.368,225.625,374.182,225.385,377.271z"/>
<path style="fill:#D15241;" d="M123.554,237.576h-14.113c-2.475,0-4.481-2.006-4.481-4.481v-55.494c0-2.474,2.006-4.481,4.481-4.481
	h14.113V237.576z"/>
<path style="fill:#E56353;" d="M127.079,251.109h70.903c5.006,0,9.063-4.058,9.063-9.064V168.65c0-5.006-4.058-9.063-9.063-9.063
	h-70.903c-5.006,0-9.064,4.058-9.064,9.063v73.395C118.015,247.051,122.074,251.109,127.079,251.109z"/>
<path style="fill:#64798A;" d="M357.296,176.098v58.5c16.161,0,29.264-13.095,29.264-29.25
	C386.56,189.193,373.457,176.098,357.296,176.098z"/>
<g>
</g>
<g>
</g>
<g>
</g>
<g>
</g>
<g>
</g>
<g>
</g>
<g>
</g>
<g>
</g>
<g>
</g>
<g>
</g>
<g>
</g>
<g>
</g>
<g>
</g>
<g>
</g>
<g>
</g>
</svg>
