<?xml version="1.0"?>
<svg xmlns="http://www.w3.org/2000/svg" xmlns:xlink="http://www.w3.org/1999/xlink" version="1.1" id="Capa_1" x="0px" y="0px" viewBox="0 0 384 384" style="enable-background:new 0 0 384 384;" xml:space="preserve" width="512px" height="512px" class="hovered-paths"><g><circle style="fill:#EFC84A;" cx="192" cy="192" r="192" data-original="#EFC84A" class=""/><path style="opacity:0.1;enable-background:new    ;" d="M253.4,119.07c-1.64-1.641-3.92-1.96-5.16-0.761l-4.52,4.56l-33.24-33.24  c-10.2-10.16-26.76-10.16-36.96,0l-33.24,33.24l-4.52-4.56c-1.2-1.199-3.52-0.88-5.16,0.761l-11.52,11.52  c-1.64,1.64-1.96,3.96-0.76,5.16l4.56,4.56l-33.24,33.2c-10.2,10.2-10.2,26.8,0,36.96l33.24,33.24l-4.56,4.52  c-1.2,1.24-0.88,3.52,0.76,5.16l11.52,11.52l112.236,112.236c65.166-17.854,116.465-69.157,134.314-134.326L264.92,130.59  L253.4,119.07z" data-original="#000000" class=""/><path style="fill:#EBF0F3;" d="M294.358,210.48l-83.878,83.878c-10.191,10.191-26.77,10.19-36.96,0L89.642,210.48  c-10.189-10.189-10.19-26.769,0-36.96l83.878-83.877c10.191-10.191,26.77-10.19,36.96,0l83.878,83.877  C304.547,183.71,304.548,200.29,294.358,210.48z M94.284,178.161c-7.63,7.63-7.631,20.047,0,27.678l83.877,83.878  c7.631,7.631,20.048,7.63,27.678,0l83.877-83.878c7.63-7.63,7.631-20.047,0-27.678l-83.877-83.878  c-7.631-7.631-20.048-7.63-27.678,0L94.284,178.161z" data-original="#EBF0F3"/><g>
	<path style="fill:#FFFFFF;" d="M192.001,252.42v25.026c23.595,0,44.957-9.564,60.419-25.026l-17.696-17.696   C223.79,245.657,208.685,252.42,192.001,252.42z" data-original="#FFFFFF"/>
	<path style="fill:#FFFFFF;" d="M252.42,192h25.026c0-23.595-9.564-44.956-25.026-60.419l-17.696,17.696   C245.658,160.212,252.42,175.316,252.42,192z" data-original="#FFFFFF"/>
</g><g>
	<path style="fill:#E56353;" d="M149.278,234.723l-17.696,17.696c15.462,15.463,36.824,25.026,60.419,25.026V252.42   C175.316,252.42,160.212,245.657,149.278,234.723z" data-original="#E56353"/>
	<path style="fill:#E56353;" d="M277.446,192H252.42c0,16.684-6.762,31.789-17.696,42.723l17.696,17.696   C267.882,236.957,277.446,215.596,277.446,192z" data-original="#E56353"/>
	<path style="fill:#E56353;" d="M234.724,149.278l17.696-17.696c-15.462-15.462-36.824-25.026-60.419-25.026v25.026   C208.685,131.582,223.79,138.344,234.724,149.278z" data-original="#E56353"/>
</g><g>
	<path style="fill:#FFFFFF;" d="M192.001,131.582v-25.026c-23.595,0-44.956,9.564-60.419,25.026l17.696,17.696   C160.212,138.344,175.316,131.582,192.001,131.582z" data-original="#FFFFFF"/>
	<path style="fill:#FFFFFF;" d="M131.582,192h-25.026c0,23.595,9.564,44.956,25.026,60.419l17.696-17.696   C138.345,223.789,131.582,208.685,131.582,192z" data-original="#FFFFFF"/>
</g><path style="fill:#E56353;" d="M149.278,149.278l-17.696-17.696c-15.462,15.462-25.026,36.824-25.026,60.419h25.026  C131.582,175.316,138.344,160.212,149.278,149.278z" data-original="#E56353"/><g>
	<path style="fill:#EBF0F3;" d="M229.688,154.314c9.645,9.645,15.61,22.969,15.61,37.687h7.121c0-16.684-6.762-31.789-17.696-42.723   L229.688,154.314z" data-original="#EBF0F3"/>
	<path style="fill:#EBF0F3;" d="M192.001,245.298v7.122c16.684,0,31.789-6.763,42.723-17.696l-5.036-5.036   C220.043,239.333,206.718,245.298,192.001,245.298z" data-original="#EBF0F3"/>
</g><g>
	<path style="fill:#D15241;" d="M154.314,229.688l-5.036,5.036c10.934,10.934,26.038,17.696,42.722,17.696v-7.122   C177.283,245.298,163.959,239.332,154.314,229.688z" data-original="#D15241"/>
	<path style="fill:#D15241;" d="M229.688,229.688l5.036,5.036c10.934-10.934,17.696-26.038,17.696-42.723h-7.121   C245.298,206.718,239.333,220.043,229.688,229.688z" data-original="#D15241"/>
</g><g>
	<path style="fill:#EBF0F3;" d="M138.703,192h-7.121c0,16.684,6.763,31.789,17.696,42.723l5.036-5.036   C144.669,220.042,138.703,206.718,138.703,192z" data-original="#EBF0F3"/>
	<path style="fill:#EBF0F3;" d="M192.001,138.703v-7.121c-16.684,0-31.789,6.762-42.722,17.696l5.036,5.036   C163.959,144.668,177.283,138.703,192.001,138.703z" data-original="#EBF0F3"/>
</g><g>
	<path style="fill:#D15241;" d="M154.314,154.314l-5.036-5.036c-10.934,10.934-17.696,26.039-17.696,42.723h7.121   C138.703,177.283,144.669,163.958,154.314,154.314z" data-original="#D15241"/>
	<path style="fill:#D15241;" d="M229.688,154.314l5.036-5.036c-10.934-10.934-26.039-17.696-42.723-17.696v7.121   C206.718,138.703,220.043,144.668,229.688,154.314z" data-original="#D15241"/>
</g><g>
	<path style="fill:#64798A" d="M264.925,130.603l-11.526-11.526c-1.632-1.632-3.938-1.972-5.15-0.76l-28.536,28.536   c-1.212,1.212-0.872,3.518,0.76,5.15l11.526,11.526c1.632,1.632,3.938,1.972,5.15,0.76l28.536-28.537   C266.897,134.541,266.556,132.235,264.925,130.603z" data-original="#64798A" class="active-path"/>
	<path style="fill:#64798A" d="M163.53,231.997l-11.526-11.526c-1.632-1.632-3.938-1.972-5.15-0.76l-28.537,28.537   c-1.212,1.212-0.872,3.518,0.76,5.15l11.526,11.526c1.632,1.632,3.938,1.972,5.15,0.76l28.536-28.536   C165.502,235.935,165.162,233.629,163.53,231.997z" data-original="#64798A" class="active-path"/>
	<path style="fill:#64798A" d="M253.398,264.924l11.526-11.526c1.632-1.632,1.972-3.938,0.76-5.15l-28.536-28.537   c-1.212-1.212-3.518-0.872-5.15,0.76l-11.526,11.526c-1.632,1.632-1.972,3.938-0.76,5.15l28.536,28.536   C249.461,266.896,251.767,266.556,253.398,264.924z" data-original="#64798A" class="active-path"/>
	<path style="fill:#64798A" d="M152.004,163.53l11.526-11.526c1.632-1.632,1.972-3.938,0.76-5.15l-28.536-28.536   c-1.212-1.212-3.518-0.872-5.15,0.76l-11.526,11.526c-1.632,1.632-1.972,3.938-0.76,5.15l28.537,28.537   C148.066,165.502,150.372,165.162,152.004,163.53z" data-original="#64798A" class="active-path"/>
</g></g> </svg>
