<?xml version="1.0" encoding="iso-8859-1"?>
<!-- Generator: Adobe Illustrator 19.0.0, SVG Export Plug-In . SVG Version: 6.00 Build 0)  -->
<svg version="1.1" id="Capa_1" xmlns="http://www.w3.org/2000/svg" xmlns:xlink="http://www.w3.org/1999/xlink" x="0px" y="0px"
	 viewBox="0 0 384 384" style="enable-background:new 0 0 384 384;" xml:space="preserve">
<circle style="fill:#EA8953;" cx="192" cy="192" r="192"/>
<path style="opacity:0.1;enable-background:new    ;" d="M384,192c0-8.244-0.579-16.348-1.587-24.318L298.12,83.389h-32.28v10.2
	h-46.12l-11.6-11.6h-32.24v11.6h-47.52l-10.2-10.2H85.88v32.24l31.16,31.16c-2.48,6.92-3.96,14.24-4.4,21.88H100.8v32.24
	l69.72,69.72v9.48l-0.48,0.08c-1.12,0.2-1.92,1.28-1.72,2.44c0.08,0.48,0.28,0.88,0.6,1.16l0.12,0.12l1.48,1.48v2.24l-0.48,0.08
	c-1.12,0.16-1.92,1.24-1.72,2.4c0.08,0.44,0.24,0.8,0.56,1.08h-0.08l0.24,0.2l1.48,1.52v2.2l-0.48,0.08
	c-1.12,0.2-1.92,1.28-1.72,2.44c0.08,0.48,0.32,0.92,0.64,1.2h-0.04l77.343,77.343C325.868,352.754,384,279.186,384,192z"/>
<path style="fill:#3A556A;" d="M118.143,115.622v-12.986h37.174c-24.189,12.629-41.045,37.308-42.669,66.035h-11.839v32.25h32.25
	v-32.25h-11.381c1.998-31.32,24.499-57.071,54.196-64.061v9.636h32.25v-9.636c29.696,6.99,52.198,32.741,54.196,64.061H250.94v32.25
	h32.25v-32.25h-11.839c-1.624-28.727-18.48-53.406-42.669-66.035h37.174v12.986h32.25V83.376h-32.25v10.23h-57.732V82h-32.25v11.606
	h-57.732v-10.23h-32.25v32.246H118.143z M124.029,177.702v14.19h-14.19v-14.19H124.029z M274.16,177.702v14.19h-14.19v-14.19H274.16
	z M274.888,92.406h14.19v14.185h-14.19V92.406z M184.905,91.03h14.19v14.185h-14.19V91.03z M94.923,92.406h14.19v14.185h-14.19
	V92.406z"/>
<path style="fill:#FCD462;" d="M246.323,177.84c0-32.126-27.889-57.739-60.776-53.95c-24.047,2.77-43.779,21.822-47.273,45.775
	c-2.395,16.417,2.564,31.691,12.068,43.028c13.381,15.962,20.194,36.415,20.194,57.244v2.114h42.926v-2.094
	c0-21.487,8.169-41.804,21.39-58.742C242.04,202.008,246.323,190.426,246.323,177.84z"/>
<rect x="176.92" y="189.48" style="fill:#CE412D;" width="10.056" height="82.568"/>
<rect x="186.972" y="189.48" style="fill:#D15241;" width="10.056" height="82.568"/>
<rect x="197.04" y="189.48" style="fill:#E56353;" width="10.056" height="82.568"/>
<path style="fill:#F6C358;" d="M207.084,189.482l-9.239-17.037c-1.478,1.535-3.546,2.499-5.845,2.499
	c-2.299,0-4.366-0.964-5.845-2.499l-9.239,17.037H207.084z"/>
<path style="fill:#64798A;" d="M192,174.944c2.3,0,4.367-0.964,5.845-2.498l-4.464-8.23c-0.594-1.096-2.169-1.096-2.763,0
	l-4.463,8.23C187.634,173.98,189.7,174.944,192,174.944z"/>
<path style="fill:#EBF0F3;" d="M170.537,272.05v23.541c0,1.197,0.97,2.168,2.168,2.168h38.646c1.197,0,2.168-0.971,2.168-2.168
	V272.05H170.537z"/>
<path style="fill:#D5D6DB;" d="M168.302,282.626c0.186,1.154,1.272,1.939,2.427,1.754l43.27-6.963
	c1.155-0.186,1.94-1.272,1.754-2.427L168.302,282.626z"/>
<path style="fill:#E1E6E9;" d="M215.754,274.99c-0.186-1.154-1.272-1.939-2.427-1.753l-43.27,6.963
	c-1.155,0.186-1.94,1.272-1.755,2.426l0,0L215.754,274.99L215.754,274.99z"/>
<path style="fill:#D5D6DB;" d="M168.302,290.121c0.186,1.155,1.272,1.94,2.427,1.754l43.27-6.963
	c1.155-0.186,1.94-1.272,1.754-2.426L168.302,290.121z"/>
<path style="fill:#E1E6E9;" d="M215.754,282.485c-0.186-1.154-1.272-1.939-2.427-1.753l-43.27,6.963
	c-1.155,0.186-1.94,1.272-1.755,2.426l0,0L215.754,282.485L215.754,282.485z"/>
<path style="fill:#D5D6DB;" d="M168.302,297.616c0.186,1.155,1.272,1.94,2.427,1.754l43.27-6.963
	c1.155-0.186,1.94-1.272,1.754-2.427L168.302,297.616z"/>
<path style="fill:#E1E6E9;" d="M215.754,289.98c-0.186-1.154-1.272-1.939-2.427-1.753l-43.27,6.963
	c-1.155,0.186-1.94,1.272-1.755,2.426l0,0L215.754,289.98L215.754,289.98z"/>
<path style="fill:#D5D6DB;" d="M181.475,297.76c0,2.342,4.724,4.24,10.554,4.24s10.554-1.899,10.554-4.24H181.475z"/>
<g>
</g>
<g>
</g>
<g>
</g>
<g>
</g>
<g>
</g>
<g>
</g>
<g>
</g>
<g>
</g>
<g>
</g>
<g>
</g>
<g>
</g>
<g>
</g>
<g>
</g>
<g>
</g>
<g>
</g>
</svg>
