<?xml version="1.0"?>
<svg xmlns="http://www.w3.org/2000/svg" xmlns:xlink="http://www.w3.org/1999/xlink" version="1.1" id="Capa_1" x="0px" y="0px" viewBox="0 0 409.6 409.6" style="enable-background:new 0 0 409.6 409.6;" xml:space="preserve" width="512px" height="512px" class=""><g><circle style="fill:#EFC84A;" cx="204.8" cy="204.8" r="204.8" data-original="#EFC84A" class=""/><polyline style="opacity:0.1;enable-background:new    ;" points="92.673,217.301 107.94,232.567 107.94,217.301 " data-original="#000000" class=""/><path style="opacity:0.1;enable-background:new    ;" d="M403.746,253.409L282.762,132.424l-0.029,0.021  c-14.116-15.235-32.58-26.27-53.384-31.103L218.707,90.7l-0.035,0.034c-3.196-3.396-7.666-5.566-12.698-5.566  c-8.79,0-16,6.4-17.408,14.763c-44.459,7.339-79.659,42.752-87.083,87.595c-8.021,1.706-14.037,8.789-14.037,17.28  c0,8.448,5.931,15.445,13.867,17.237c3.654,23.214,14.792,43.933,30.791,59.633l-0.024,0.021l121.914,121.914  C327.765,385.416,385.762,327.263,403.746,253.409z" data-original="#000000" class=""/><g>
	<path style="fill:#3A556A;" d="M303.668,212.622H104.459c-2.811,0-5.09-2.279-5.09-5.09c0-2.811,2.279-5.09,5.09-5.09h199.208   c2.811,0,5.09,2.279,5.09,5.09C308.758,210.343,306.479,212.622,303.668,212.622z" data-original="#3A556A"/>
	<path style="fill:#3A556A;" d="M205.893,163.726c-47.277,0-78.827-20.795-79.296-21.113l5.698-8.436   c0.652,0.445,66.539,43.575,149.764-0.282l4.748,9.007C257.186,158.509,229.565,163.726,205.893,163.726z" data-original="#3A556A"/>
	<path style="fill:#3A556A;" d="M281.562,279.795c-75.868-51.81-146.173-2.219-149.128-0.082l-5.977-8.239   c0.779-0.567,78.926-56.015,160.847-0.085L281.562,279.795z" data-original="#3A556A"/>
	<path style="fill:#3A556A;" d="M184.288,306.748c-76.123-122.662-0.099-203.097,0.68-203.897l7.293,7.102l-3.646-3.551l3.654,3.545   c-2.939,3.038-71.124,75.745,0.672,191.432L184.288,306.748z" data-original="#3A556A"/>
	<rect x="200.87" y="103.64" style="fill:#3A556A;" width="10.18" height="203.22" data-original="#3A556A"/>
	<path style="fill:#3A556A;" d="M224.801,306.748l-8.653-5.368c71.796-115.687,3.611-188.394,0.672-191.432l7.301-7.096   C224.901,103.651,300.924,184.086,224.801,306.748z" data-original="#3A556A"/>
	<path style="fill:#3A556A;" d="M205.658,311.934c-58.264,0-105.668-47.866-105.668-106.7s47.404-106.7,105.668-106.7   s105.668,47.866,105.668,106.7S263.922,311.934,205.658,311.934z M205.658,108.713c-52.653,0-95.488,43.298-95.488,96.52   s42.835,96.52,95.488,96.52s95.488-43.298,95.488-96.52S258.311,108.713,205.658,108.713z" data-original="#3A556A"/>
</g><circle style="fill:#E56353;" cx="204.06" cy="207.53" r="17.664" data-original="#E56353"/><circle style="fill:#EBF0F3;" cx="304.47" cy="207.53" r="17.664" data-original="#EBF0F3"/><circle style="fill:#44C4A1;" cx="105.13" cy="204.8" r="17.664" data-original="#44C4A1"/><circle style="fill:#27A2DB;" cx="205.95" cy="102.87" r="17.664" data-original="#27A2DB"/><circle style="fill:#DC8744" cx="205.95" cy="306.73" r="17.664" data-original="#DC8744" class="active-path" data-old_color="#DC8744"/></g> </svg>
