<?xml version="1.0" encoding="iso-8859-1"?>
<!-- Generator: Adobe Illustrator 19.0.0, SVG Export Plug-In . SVG Version: 6.00 Build 0)  -->
<svg version="1.1" id="Capa_1" xmlns="http://www.w3.org/2000/svg" xmlns:xlink="http://www.w3.org/1999/xlink" x="0px" y="0px"
	 viewBox="0 0 384 384" style="enable-background:new 0 0 384 384;" xml:space="preserve">
<circle style="fill:#EA8953;" cx="192" cy="192" r="192"/>
<path style="opacity:0.1;enable-background:new    ;" d="M377.93,240.071L221.52,83.63l-1.12-1.12l-0.04-0.04
	c-0.76-0.439-1.72-0.6-2.64-0.32l-7.04,2.04l-10.24,3.04l-1.16,0.32l-13.36-5.32c-1.52-0.64-3.2,0.12-3.8,1.6l-23.84,59.52l1.2,0.48
	l-28.4,70.96H82v49.24l27.64,27.64l0.92,6.08l-0.88,2.16c-0.32,0.84-0.04,1.72,0.68,2l82.052,82.08
	C281.668,383.801,356.624,322.717,377.93,240.071z"/>
<rect x="221.759" y="111.615" transform="matrix(-0.9593 0.2822 -0.2822 -0.9593 500.4872 321.366)" style="fill:#44C4A1;" width="10.68" height="170.224"/>
<rect x="231.991" y="108.6" transform="matrix(-0.9594 0.2822 -0.2822 -0.9594 519.6786 312.5809)" style="fill:#3EA69B;" width="10.68" height="170.224"/>
<rect x="242.243" y="105.6" transform="matrix(-0.9593 0.2822 -0.2822 -0.9593 538.9246 303.7983)" style="fill:#31978C;" width="10.68" height="170.224"/>
<rect x="196.759" y="108.359" transform="matrix(-0.9594 0.2822 -0.2822 -0.9594 448.0227 155.9636)" style="fill:#E56353;" width="32.04" height="3.776"/>
<path style="fill:#EBF0F3;" d="M193.42,89.283l7.022-2.066l6.685,22.724l-10.244,3.013l-5.737-19.503
	C190.623,91.672,191.641,89.806,193.42,89.283z"/>
<rect x="203.568" y="85.237" transform="matrix(-0.9594 0.2822 -0.2822 -0.9594 436.7218 131.2625)" style="fill:#E1E6E9;" width="10.68" height="23.688"/>
<path style="fill:#D5D6DB;" d="M210.687,84.203l7.022-2.066c1.78-0.524,3.646,0.494,4.169,2.274l5.737,19.502l-10.244,3.014
	L210.687,84.203z"/>
<path style="fill:#FCD462;" d="M276.718,270.838l-4.307,20.124c-1.966-1.12-4.36-1.483-6.703-0.794
	c-2.342,0.689-4.158,2.29-5.205,4.297l-14.517-14.586L276.718,270.838z"/>
<path style="fill:#64798A;" d="M265.708,290.168c2.343-0.689,4.738-0.327,6.703,0.794l-2.079,9.714
	c-0.278,1.298-1.885,1.771-2.822,0.83l-7.008-7.041C261.55,292.458,263.366,290.857,265.708,290.168z"/>
<path style="fill:#3A556A;" d="M113.299,294.605c-0.713-0.286-1.554,0.142-1.88,0.955l-1.748,4.362
	c-0.326,0.813-0.012,1.704,0.7,1.989c0.712,0.286,1.554-0.142,1.88-0.955l1.748-4.362
	C114.325,295.781,114.011,294.89,113.299,294.605z"/>
<path style="fill:#64798A;" d="M159.498,143.835l-51.83,129.366c-0.354,0.882-0.467,1.842-0.328,2.782l3.207,21.757l2.58,1.034
	l17.342-13.524c0.75-0.584,1.33-1.357,1.684-2.239l51.831-129.366L159.498,143.835z"/>
<path style="fill:#3A556A;" d="M207.427,90.832l-21.516-8.621c-1.502-0.602-3.206,0.128-3.808,1.629l-23.839,59.5l26.953,10.799
	l23.839-59.5C209.657,93.138,208.928,91.433,207.427,90.832z"/>
<path style="fill:#2F4859;" d="M197.066,94.274l-6.038-2.419c-0.421-0.168-0.899,0.036-1.068,0.456l-19.398,48.416
	c-0.169,0.421,0.036,0.899,0.457,1.067l6.038,2.419c0.422,0.169,0.899-0.036,1.068-0.456l19.398-48.416
	C197.691,94.921,197.487,94.443,197.066,94.274z"/>
<g>
	
		<rect x="183.656" y="95.817" transform="matrix(-0.9283 -0.3719 0.3719 -0.9283 313.7709 291.7697)" style="fill:#EBF0F3;" width="2.732" height="39.62"/>
	<polygon style="fill:#EBF0F3;" points="178.24,136.19 175.704,135.174 172.876,139.933 177,141.585 	"/>
</g>
<rect x="82" y="214.792" style="fill:#FCD462;" width="220" height="49.22"/>
<rect x="82" y="233.968" style="fill:#F6C358;" width="220" height="10.832"/>
<g>
	<rect x="89.64" y="214.8" style="fill:#DC8744;" width="2.056" height="7.216"/>
	<rect x="94.356" y="214.8" style="fill:#DC8744;" width="2.056" height="7.216"/>
	<rect x="99.072" y="214.8" style="fill:#DC8744;" width="2.056" height="7.216"/>
	<rect x="103.784" y="214.8" style="fill:#DC8744;" width="2.056" height="11.256"/>
	<rect x="108.48" y="214.8" style="fill:#DC8744;" width="2.056" height="7.216"/>
	<rect x="113.2" y="214.8" style="fill:#DC8744;" width="2.056" height="7.216"/>
	<rect x="117.92" y="214.8" style="fill:#DC8744;" width="2.056" height="7.216"/>
	<rect x="122.636" y="214.8" style="fill:#DC8744;" width="2.056" height="11.256"/>
	<rect x="127.348" y="214.8" style="fill:#DC8744;" width="2.056" height="7.216"/>
	<rect x="132.08" y="214.8" style="fill:#DC8744;" width="2.056" height="7.216"/>
	<rect x="136.76" y="214.8" style="fill:#DC8744;" width="2.056" height="7.216"/>
	<rect x="141.48" y="214.8" style="fill:#DC8744;" width="2.056" height="11.256"/>
	<rect x="146.2" y="214.8" style="fill:#DC8744;" width="2.056" height="7.216"/>
	<rect x="150.912" y="214.8" style="fill:#DC8744;" width="2.056" height="7.216"/>
	<rect x="155.624" y="214.8" style="fill:#DC8744;" width="2.056" height="7.216"/>
	<rect x="160.32" y="214.8" style="fill:#DC8744;" width="2.056" height="11.256"/>
	<rect x="165.04" y="214.8" style="fill:#DC8744;" width="2.056" height="7.216"/>
	<rect x="169.76" y="214.8" style="fill:#DC8744;" width="2.056" height="7.216"/>
	<rect x="174.48" y="214.8" style="fill:#DC8744;" width="2.056" height="7.216"/>
	<rect x="179.188" y="214.8" style="fill:#DC8744;" width="2.056" height="11.256"/>
	<rect x="183.904" y="214.8" style="fill:#DC8744;" width="2.056" height="7.216"/>
	<rect x="188.6" y="214.8" style="fill:#DC8744;" width="2.056" height="7.216"/>
	<rect x="193.32" y="214.8" style="fill:#DC8744;" width="2.056" height="7.216"/>
	<rect x="198.04" y="214.8" style="fill:#DC8744;" width="2.056" height="11.256"/>
	<rect x="202.76" y="214.8" style="fill:#DC8744;" width="2.056" height="7.216"/>
	<rect x="207.468" y="214.8" style="fill:#DC8744;" width="2.056" height="7.216"/>
	<rect x="212.2" y="214.8" style="fill:#DC8744;" width="2.056" height="7.216"/>
	<rect x="216.88" y="214.8" style="fill:#DC8744;" width="2.056" height="11.256"/>
	<rect x="221.6" y="214.8" style="fill:#DC8744;" width="2.056" height="7.216"/>
	<rect x="226.32" y="214.8" style="fill:#DC8744;" width="2.056" height="7.216"/>
	<rect x="231.04" y="214.8" style="fill:#DC8744;" width="2.056" height="7.216"/>
	<rect x="235.744" y="214.8" style="fill:#DC8744;" width="2.056" height="11.256"/>
	<rect x="240.44" y="214.8" style="fill:#DC8744;" width="2.056" height="7.216"/>
	<rect x="245.16" y="214.8" style="fill:#DC8744;" width="2.056" height="7.216"/>
	<rect x="249.88" y="214.8" style="fill:#DC8744;" width="2.056" height="7.216"/>
	<rect x="254.6" y="214.8" style="fill:#DC8744;" width="2.056" height="11.256"/>
	<rect x="259.32" y="214.8" style="fill:#DC8744;" width="2.056" height="7.216"/>
	<rect x="264.04" y="214.8" style="fill:#DC8744;" width="2.056" height="7.216"/>
	<rect x="268.72" y="214.8" style="fill:#DC8744;" width="2.056" height="7.216"/>
	<rect x="273.44" y="214.8" style="fill:#DC8744;" width="2.056" height="11.256"/>
	<rect x="278.16" y="214.8" style="fill:#DC8744;" width="2.056" height="7.216"/>
	<rect x="282.88" y="214.8" style="fill:#DC8744;" width="2.056" height="7.216"/>
	<rect x="287.6" y="214.8" style="fill:#DC8744;" width="2.056" height="7.216"/>
	<rect x="292.28" y="214.8" style="fill:#DC8744;" width="2.056" height="11.256"/>
</g>
<g>
</g>
<g>
</g>
<g>
</g>
<g>
</g>
<g>
</g>
<g>
</g>
<g>
</g>
<g>
</g>
<g>
</g>
<g>
</g>
<g>
</g>
<g>
</g>
<g>
</g>
<g>
</g>
<g>
</g>
</svg>
