<?xml version="1.0" encoding="iso-8859-1"?>
<!-- Generator: Adobe Illustrator 19.0.0, SVG Export Plug-In . SVG Version: 6.00 Build 0)  -->
<svg version="1.1" id="Capa_1" xmlns="http://www.w3.org/2000/svg" xmlns:xlink="http://www.w3.org/1999/xlink" x="0px" y="0px"
	 viewBox="0 0 384 384" style="enable-background:new 0 0 384 384;" xml:space="preserve">
<circle style="fill:#EA8953;" cx="192" cy="192" r="192"/>
<path style="opacity:0.1;enable-background:new    ;" d="M301.16,83.571l-0.6-0.6c-0.68-0.6-1.6-0.961-2.56-0.961h-65.12
	c-2.2,0-3.96,1.76-3.96,4v37.16H106.76c-3.16,0-5.72,2.56-5.72,5.721v98.52c0,1.4,0.48,2.68,1.32,3.64l0.36,0.4l3.6,3.56
	c-3,0.121-5.72,1.24-6.16,2.6l-18.04,53.92c-0.08,0.2-0.08,0.399-0.08,0.6H82v6.799c0,0.681,0.4,1.32,1.08,1.801l81.257,81.257
	C173.373,383.293,182.602,384,192,384c106.039,0,192-85.961,192-192c0-9.369-0.704-18.571-2.002-27.582L301.32,83.771L301.16,83.571
	z"/>
<path style="fill:#E1E6E9;" d="M302,292.45l-2.053-0.042l-16.119-48.147c-0.482-1.441-3.436-2.598-6.602-2.598H106.777
	c-3.166,0-6.121,1.157-6.604,2.598l-16.047,47.931L82,292.15v6.765h0.01c0.033,1.75,2.424,3.086,5.842,3.086h208.301
	c3.416,0,5.806-1.336,5.84-3.086H302V292.45z"/>
<path style="fill:#64798A;" d="M277.225,123.162H106.777c-3.166,0-5.734,2.567-5.734,5.734v98.516c0,3.167,2.568,5.734,5.734,5.734
	h170.449c3.167,0,5.732-2.567,5.732-5.734v-98.516C282.958,125.729,280.392,123.162,277.225,123.162z"/>
<path style="fill:#EBF0F3;" d="M277.225,234.996H106.777c-3.166,0-6.121,1.157-6.604,2.598l-18.058,53.938
	c-0.699,2.088,1.866,3.8,5.735,3.8h208.302c3.87,0,6.433-1.712,5.733-3.8l-18.057-53.938
	C283.345,236.154,280.392,234.996,277.225,234.996z"/>
<g>
	<path style="fill:#E1E6E9;" d="M273.61,239.818H110.392c-0.123,0-0.236,0.046-0.253,0.102l-7.727,26.11
		c-0.02,0.067,0.073,0.122,0.208,0.122h178.762c0.135,0,0.228-0.054,0.208-0.122l-7.727-26.11
		C273.846,239.863,273.733,239.818,273.61,239.818z"/>
	<path style="fill:#E1E6E9;" d="M223.321,269.466h-62.64c-2.211,0-4.108,0.91-4.239,2.039l-1.738,15.07
		c-0.144,1.252,1.644,2.274,3.995,2.274h66.605c2.351,0,4.139-1.022,3.995-2.274l-1.739-15.07
		C227.43,270.376,225.532,269.466,223.321,269.466z"/>
</g>
<path style="fill:#3A556A;" d="M264.455,230.013H119.546c-0.258,0-0.469,0.17-0.469,0.38v7.372c0,0.21,0.211,0.38,0.469,0.38
	h144.908c0.258,0,0.468-0.17,0.468-0.38v-7.372C264.923,230.183,264.712,230.013,264.455,230.013z"/>
<circle style="fill:#2F4859;" cx="192" cy="128.32" r="2.368"/>
<circle style="fill:#3A556A;" cx="192" cy="128.32" r="1.088"/>
<rect x="111.596" y="133.72" style="fill:#EBF0F3;" width="160.8" height="88.88"/>
<rect x="111.596" y="219.08" style="fill:#E1E6E9;" width="160.8" height="3.52"/>
<path style="fill:#3A556A;" d="M277.225,123.162h-52.323v10.554h47.505v75.108h10.552v-79.928
	C282.958,125.729,280.392,123.162,277.225,123.162z"/>
<path style="fill:#D5D6DB;" d="M232.898,208.824h39.509v-75.108h-47.505v67.112C224.902,205.236,228.488,208.824,232.898,208.824z"
	/>
<path style="fill:#E1E6E9;" d="M298.004,86.466h-65.106c-2.207,0-3.997,1.789-3.997,3.997v110.364c0,2.207,1.79,3.997,3.997,3.997
	h65.106c2.207,0,3.996-1.79,3.996-3.997V90.463C302,88.256,300.211,86.466,298.004,86.466z"/>
<path style="fill:#EBF0F3;" d="M298.004,82h-65.106c-2.207,0-3.997,1.789-3.997,3.997v110.364c0,2.207,1.79,3.997,3.997,3.997
	h65.106c2.207,0,3.996-1.79,3.996-3.997V85.997C302,83.789,300.211,82,298.004,82z"/>
<rect x="237.84" y="90.932" style="fill:#64798A;" width="55.236" height="90.64"/>
<rect x="237.84" y="168.88" style="fill:#3A556A;" width="55.236" height="12.696"/>
<path style="fill:#64798A;" d="M265.45,197.624c-3.413,0-6.189-2.777-6.189-6.19c0-3.413,2.776-6.19,6.189-6.19
	c3.413,0,6.191,2.777,6.191,6.19C271.642,194.847,268.863,197.624,265.45,197.624z M265.45,187.477
	c-2.181,0-3.956,1.775-3.956,3.957c0,2.182,1.775,3.957,3.956,3.957c2.183,0,3.958-1.775,3.958-3.957
	C269.408,189.252,267.633,187.477,265.45,187.477z"/>
<path style="fill:#44C4A1;" d="M248.005,171.223h-5.827c-0.668,0-1.21,0.542-1.21,1.21v5.827c0,0.668,0.542,1.209,1.21,1.209h5.827
	c0.668,0,1.209-0.542,1.209-1.209v-5.827C249.215,171.764,248.673,171.223,248.005,171.223z"/>
<path style="fill:#FCD462;" d="M261.578,171.223h-5.827c-0.668,0-1.209,0.542-1.209,1.21v5.827c0,0.668,0.541,1.209,1.209,1.209
	h5.827c0.668,0,1.209-0.542,1.209-1.209v-5.827C262.787,171.764,262.246,171.223,261.578,171.223z"/>
<path style="fill:#27A2DB;" d="M275.151,171.223h-5.827c-0.668,0-1.209,0.542-1.209,1.21v5.827c0,0.668,0.542,1.209,1.209,1.209
	h5.827c0.668,0,1.209-0.542,1.209-1.209v-5.827C276.36,171.764,275.818,171.223,275.151,171.223z"/>
<path style="fill:#DC8744;" d="M288.723,171.223h-5.827c-0.668,0-1.21,0.542-1.21,1.21v5.827c0,0.668,0.542,1.209,1.21,1.209h5.827
	c0.668,0,1.209-0.542,1.209-1.209v-5.827C289.932,171.764,289.391,171.223,288.723,171.223z"/>
<polygon style="fill:#3EA69B;" points="182.786,152.609 164.286,171.11 175.902,182.727 194.403,164.226 198.645,168.468 
	199.792,147.222 178.545,148.368 "/>
<polygon style="fill:#44C4A1;" points="183.928,151.468 165.427,169.968 177.044,181.585 195.545,163.084 199.786,167.326 
	200.933,146.08 179.686,147.226 "/>
<polygon style="fill:#D15241;" points="187.278,203.698 205.779,185.198 194.162,173.581 175.661,192.082 171.42,187.84 
	170.273,209.086 191.52,207.94 "/>
<polygon style="fill:#E56353;" points="186.137,204.84 204.638,186.34 193.02,174.722 174.52,193.223 170.278,188.982 
	169.132,210.228 190.378,209.082 "/>
<g>
</g>
<g>
</g>
<g>
</g>
<g>
</g>
<g>
</g>
<g>
</g>
<g>
</g>
<g>
</g>
<g>
</g>
<g>
</g>
<g>
</g>
<g>
</g>
<g>
</g>
<g>
</g>
<g>
</g>
</svg>
