<?xml version="1.0"?>
<svg xmlns="http://www.w3.org/2000/svg" enable-background="new 0 0 140 140" height="512px" viewBox="0 0 140 140" width="512px"><g transform="matrix(1.09358 0 0 1.09358 -6.55031 -6.55031)"><circle cx="70" cy="70" fill="#4da0dc" r="64" data-original="#4DA0DC"/><path d="m91.2526016 130.3711853c21.6981201-7.638916 38.0320969-26.6334839 41.872612-49.8554688l-42.0015182-42.3087806c-.5200195-.5800171-1.3200073-.8900146-2.1499634-.7200317l-54.8400307 10.960022c-1.5800171.3200073-2.3599834 2.1300049-1.4899902 3.4899902l.1499634.2399902c-1.1599712.710022-1.8299541 2.0900269-1.5399761 3.5l.2800293 1.4199829-2.2300415.4400024c-.5999756.1200562-.9899902.7000122-.8699951 1.3000488l2.25 11.2699623c.0599976.2800293.2200317.5200195.4400024.6700439v.0099487z" opacity=".1" data-original="#000000"/><path d="m80.739021 71.396256h6.231147v34.527336h-6.231147z" fill="#474c5b" transform="matrix(0 1 -1 0 172.515 4.805)" data-original="#474C5B"/><path d="m29.3017368 57.5388985c-.597456.1193542-.9850101.7004128-.865654 1.2978668l2.2522221 11.2738457c.1193466.5974045.7004032.9849548 1.2978592.8656006l4.1920853-.9762039-2.6844292-13.4373131z" fill="#5d7091" data-original="#5D7091"/><path d="m61.974503 69.549057h6.778776v17.431139h-6.778776z" fill="#474c5b" transform="matrix(.981 -.196 .196 .981 -14.066 14.322)" data-original="#474C5B"/><path d="m55.1989098 68.160202.7432442 3.7204285c.1597252.7995377.9373283 1.3181839 1.7368622 1.1584549l12.7237854-2.5418777c.79953-.159729 1.3181763-.9373322 1.1584473-1.7368698l-.7432404-3.7204285z" fill="#5d7091" data-original="#5D7091"/><path d="m84.1968384 41.6892776-50.3215065 10.0529366c-1.811657.3619232-2.9869385 2.124012-2.6250153 3.9356728l3.2039757 16.0379944c.3619232 1.8116608 2.124012 2.9869385 3.9356728 2.6250153l50.3215065-10.0529327c1.8117142-.3619347 2.9869385-2.124012 2.6250153-3.9356728l-3.2039719-16.0379945c-.3619233-1.8116607-2.1239624-2.9869499-3.9356766-2.6250191z" fill="#4d5c7d" data-original="#4D5C7D"/><path d="m88.9729996 37.4910088-54.8348046 10.9545745c-1.5875282.3171463-2.3623199 2.128788-1.4950981 3.4957428l9.4816208 14.945507c.5106201.8047791 1.4637413 1.2124557 2.3983727 1.0257339l48.5882072-9.7066612c1.2485657-.2494316 2.0585403-1.4638176 1.8091049-2.7123795l-3.2350235-16.1934126c-.2494278-1.2485619-1.4638138-2.0585327-2.7123794-1.8091049z" fill="#e6e9ef" data-original="#E6E9EF"/><circle cx="66.876" cy="88.386" fill="#64798a" r="6.543" data-original="#64798A" class="active-path" style="fill:#64798A"/><circle cx="66.876" cy="88.386" fill="#e6e9ef" r="3.479" data-original="#E6E9EF"/><path d="m99.1356812 76.6865997c-1.8529892 0-3.3551712 1.502182-3.3551712 3.3551712v19.1571121c0 1.8529816 1.502182 3.3552246 3.3551712 3.3552246h2.7825928v-25.8675079z" fill="#4d5c7d" data-original="#4D5C7D"/></g> </svg>
