<?xml version="1.0"?>
<svg xmlns="http://www.w3.org/2000/svg" enable-background="new 0 0 140 140" height="512px" viewBox="0 0 140 140" width="512px"><g transform="matrix(1.09358 0 0 1.09358 -6.55031 -6.55031)"><circle cx="70" cy="70" fill="#ffd25a" r="64" data-original="#FFD25A"/><path d="m133.9000244 66.5200195c.0599976 1.1499024.0999756 2.3100586.0999756 3.4799805 0 35.3500977-28.6500244 64-64 64-.8099976 0-1.5999756-.0302734-2.4000244-.0600586l-26.539978-26.5400391v-35.4399414l-6.4500122-34.8500977 6.4500122-1.199707v-4.6801758h25.2800293l24.8599854-4.6000977 4.5999756 4.6000977h2.8099976z" opacity=".1" data-original="#000000"/><path d="m41.056156 31.23428h57.557129v76.161163h-57.557129z" fill="#d6b251" transform="matrix(.983 -.182 .182 .983 -11.448 13.866)" data-original="#D6B251"/><path d="m41.056156 31.23428h57.557129v76.161163h-57.557129z" fill="#e6e7e8" data-original="#E6E7E8"/><g fill="#dad7dc"><path d="m69.024475 18.292303h1.620557v45.472065h-1.620557z" transform="matrix(0 1 -1 0 110.863 -28.806)" data-original="#DAD7DC"/><path d="m69.024475 24.167917h1.620557v45.472065h-1.620557z" transform="matrix(0 1 -1 0 116.739 -22.931)" data-original="#DAD7DC"/><path d="m69.024475 30.04353h1.620557v45.472065h-1.620557z" transform="matrix(0 1 -1 0 122.614 -17.055)" data-original="#DAD7DC"/><path d="m69.024475 35.919144h1.620557v45.472065h-1.620557z" transform="matrix(0 1 -1 0 128.49 -11.18)" data-original="#DAD7DC"/><path d="m57.656441 53.162788h1.620557v22.736h-1.620557z" transform="matrix(0 1 -1 0 122.998 6.064)" data-original="#DAD7DC"/><path d="m57.656441 59.038403h1.620557v22.736h-1.620557z" transform="matrix(0 1 -1 0 128.873 11.94)" data-original="#DAD7DC"/></g><path d="m84.9836807 95.7134094h-30.2978554c-.2763672 0-.5-.2236328-.5-.5v-11.1748047c0-.2763672.2236328-.5.5-.5h30.2978554c.2763672 0 .5.2236328.5.5v11.1748047c0 .2763672-.2236328.5-.5.5zm-29.7978554-1h29.2978554v-10.1748047h-29.2978554z" fill="#48b19a" data-original="#48B19A"/><path d="m103.8419266 74.6424179c-.4761505.4807129-1.0224686.8550568-1.6078033 1.1211166-3.5294189 1.6042557-6.8187561 3.6903915-9.4214401 6.563797l-2.0209198 2.2311249-3.6160278-3.2753448 1.4543457-1.6056213c2.8195496-3.1128159 4.7590179-6.8550491 6.2270355-10.7900696.2343369-.6281509.5893478-1.2232971 1.0665741-1.7501602 2.0388794-2.2509537 5.529129-2.4120026 7.7602234-.3375778 2.2155227 2.0599441 2.286949 5.6934203.1580123 7.8427352z" fill="#344e5c" data-original="#344E5C"/><path d="m73.965088 84.532425h24.795317v2.571173h-24.795317z" fill="#32796b" transform="matrix(.741 .671 -.671 .741 79.967 -35.765)" data-original="#32796B"/><path d="m97.8484421 87.7250519-14.5162354-13.1485596c-1.4952393-1.3544922-3.805542-1.2402344-5.15979.2548828l-1.4538574 1.6051025 19.9311523 18.0533447 1.4538574-1.6051025c1.3542481-1.4952392 1.2402344-3.8052978-.2551269-5.1596679z" fill="#dc594e" data-original="#DC594E"/><g fill="#db584d"><path d="m61.2197609 91.1206284h-.6565742l-.2610016-.6790009h-1.1948814l-.246727.6790009h-.6402627l1.164299-2.9892502h.6382256zm-1.1112824-1.1826477-.4118881-1.1092453-.4037323 1.1092453z" data-original="#DB584D" class="active-path" style="fill:#DB584D"/><path d="m61.5398903 91.1206284v-2.9892502h.9685516c.3670273 0 .6062775.0149536.7177429.0448608.1712837.0448608.3146973.142395.4302406.2926025.1155472.1502151.1733208.3442612.1733208.5821533 0 .1835098-.0333061.3377991-.0999146.4628601s-.1512299.2232819-.2538605.2946472c-.1026344.0713654-.2069664.1185989-.3129959.1417084-.1440926.0285492-.3527565.0428238-.625988.0428238h-.3935356v1.127594h-.6035613zm.6035614-2.4835663v.8482513h.3303261c.2378883 0 .3969345-.0156326.4771385-.0468979.0802002-.0312653.1430702-.0802078.1886101-.1468124.0455399-.0666122.0683098-.1440964.0683098-.2324524 0-.1087494-.0319443-.1984711-.0958366-.2691574-.0638885-.0706863-.1447716-.1148682-.2426453-.1325378-.0720482-.0135956-.2168198-.0203934-.4343185-.0203934z" data-original="#DB584D" class="active-path" style="fill:#DB584D"/><path d="m64.3252335 91.1206284v-2.9892502h.9685516c.3670273 0 .6062775.0149536.7177429.0448608.1712799.0448608.3146973.142395.4302444.2926025.1155472.1502151.173317.3442612.173317.5821533 0 .1835098-.0333023.3377991-.0999146.4628601-.0666046.125061-.1512299.2232819-.2538605.2946472s-.2069626.1185989-.3129959.1417084c-.1440887.0285492-.3527527.0428238-.6259842.0428238h-.3935394v1.127594h-.6035613zm.6035614-2.4835663v.8482513h.3303223c.2378922 0 .3969421-.0156326.4771423-.0468979s.143074-.0802078.1886139-.1468124c.0455399-.0666122.068306-.1440964.068306-.2324524 0-.1087494-.0319443-.1984711-.0958328-.2691574-.0638962-.0706863-.1447754-.1148682-.2426529-.1325378-.0720444-.0135956-.2168121-.0203934-.4343109-.0203934z" data-original="#DB584D" class="active-path" style="fill:#DB584D"/><path d="m67.1126175 91.1206284v-2.9892502h1.2703323c.3194504 0 .5515594.0268478.6963348.0805435s.2606583.1491928.3476562.2864914c.086998.137291.1305008.2942963.1305008.4710159 0 .2242966-.0659332.4095078-.1977921.5556412s-.3289642.2382278-.5913239.2762909c.1305008.0761261.2382355.159729.3231888.2508087.0849609.0910721.1994934.2528381.3435822.4852905l.3649902.583168h-.7218246l-.4363556-.6504593c-.1549683-.2324524-.2610016-.3789215-.3180923-.439415-.0570908-.0604858-.1175842-.1019516-.1814728-.124382s-.1651688-.0336456-.3038177-.0336456h-.122345v1.2479019h-.6035613zm.6035614-1.7250367h.4465485c.2895508 0 .4703445-.0122375.5423889-.036705s.1284637-.0666046.1692429-.1264191.0611725-.1345749.0611725-.2242966c0-.1005936-.0268478-.1818161-.0805435-.2436676s-.1294785-.1009293-.227356-.1172409c-.0489349-.0067978-.1957474-.0102005-.4404297-.0102005h-.4710236z" data-original="#DB584D" class="active-path" style="fill:#DB584D"/><path d="m70.0039902 89.6443558c0-.3044968.0455399-.5600586.1366196-.7666855.0679703-.1522446.1607437-.2888641.2783279-.4098434.1175919-.1209869.2463913-.2107086.3864059-.2691574.1862335-.0788422.4010086-.1182632.6443405-.1182632.4404297 0 .7928467.1366119 1.0572433.4098434.2643967.2732391.3965988.653183.3965988 1.1398315 0 .4825745-.1311798.8601379-.3935394 1.1326981-.2623596.2725525-.6130753.4088287-1.0521469.4088287-.444519 0-.7979507-.1355972-1.0603104-.4067917s-.3935393-.6446839-.3935393-1.1204605zm.6219177-.0203934c0 .3384857.0781631.5950699.2344894.7697449.1563263.1746826.3547897.2620163.5953979.2620163s.4380569-.0866547.5923462-.2599792c.1542892-.173317.2314301-.4332962.2314301-.7799377 0-.3425598-.0751038-.5981216-.2253113-.7666779-.1502075-.1685638-.3497009-.2528458-.598465-.2528458s-.4492645.0853043-.6015167.2559052-.2283706.4278564-.2283706.7717742z" data-original="#DB584D" class="active-path" style="fill:#DB584D"/><path d="m74.1371536 91.1206284-1.0684662-2.9892502h.6545334l.7564926 2.2123718.7320175-2.2123718h.6402588l-1.0704956 2.9892502z" data-original="#DB584D" class="active-path" style="fill:#DB584D"/><path d="m76.1598892 91.1206284v-2.9892502h2.2164459v.5056839h-1.6128845v.6626968h1.5007401v.5036469h-1.5007401v.8135757h1.6699829v.5036469z" data-original="#DB584D" class="active-path" style="fill:#DB584D"/><path d="m78.9431915 88.1313782h1.1031265c.2487717 0 .4384003.0190353.5689011.0570984.175354.051651.3255692.1434097.4506302.2752686s.2202148.2932816.2854691.4842758c.0652466.1909943.0978699.4264984.0978699.7065277 0 .246048-.0305862.458107-.0917587.6361847-.0747604.2174988-.1814728.3935394-.3201294.5281143-.1046677.1019516-.246048.1814804-.4241257.2385712-.1332169.0421371-.3112946.0632095-.5342255.0632095h-1.1357574v-2.9892502zm.6035614.5056839v1.9799194h.4506302c.1685638 0 .2902298-.0095139.3649902-.0285416.0978775-.0244751.1791-.0659332.2436676-.124382.0645676-.0584564.1172485-.1546326.1580276-.2885284s.0611725-.316391.0611725-.5474854-.0203934-.408493-.0611725-.532196c-.0407791-.1236954-.0978775-.2202148-.1712799-.2895432-.07341-.0693283-.1665268-.1162262-.2793503-.1406937-.0842819-.0190277-.2494431-.0285492-.495491-.0285492h-.2711944z" data-original="#DB584D" class="active-path" style="fill:#DB584D"/></g></g> </svg>
