<?xml version="1.0"?>
<svg xmlns="http://www.w3.org/2000/svg" enable-background="new 0 0 140 140" height="512px" viewBox="0 0 140 140" width="512px"><g transform="matrix(1.09358 0 0 1.09358 -6.55031 -6.55031)"><circle cx="70" cy="70" fill="#344d5b" r="64" data-original="#344D5B"/><path d="m79.8914719 133.2367096c30.3920288-4.7158203 53.6995316-30.8161545 54.0883255-62.4374924l-17.5380936-17.5380898-9.5300293-9.0700684c-.4400024-.4199219-1.0299683-.6398926-1.6399536-.5998535l-26.131897 2.8549805-5.8925781-5.8925781c-.0487061-.0517578-.0979614-.1013184-.1498413-.1499023l-.0708008-.0708008-.0026245.010498c-.5863647-.5180664-1.348877-.8422852-2.1922607-.8422852-1.8300171 0-3.3099976 1.4799805-3.3099976 3.3100586v4.8999023l-3.9300537.4300537c-.7999878.0499268-1.4400024.9599609-1.4400024 2.039917v10.0200195c0 .7084961.2836304 1.3449707.7053833 1.7128906l4.6646729 4.6645546v.5126953l-32.7900391-3.5700722c-.6099854-.0400391-1.2000122.1699219-1.6499634.5899696l-9.5200195 9.0799561c-.9022217.8608398-1.0455933 2.2099609-.4542847 3.246582l-.0147095.0001221.0320435.0321045c.1200562.2037354.2584229.399292.4369507.5712891l2.8427734 2.708374z" opacity=".1" data-original="#000000"/><path d="m70.8345871 39.4962349c-1.8309402 0-3.3152084 1.4843102-3.3152084 3.3152122v60.6875458h6.6304169v-60.6875458c-.0000001-1.8309021-1.4842683-3.3152122-3.3152085-3.3152122z" fill="#feda6f" data-original="#FEDA6F"/><path d="m116.4367142 53.2659111-9.5229874-9.0737076c-.4447937-.4239273-1.0338898-.6375237-1.6425552-.5981712l-41.6780243 4.5442734c-.797596.0515671-1.4375496.9666748-1.4375496 2.0445175v10.0138893c0 1.0778427.6399536 1.9930344 1.4375496 2.0446053l41.6780243 4.5442734c.6086655.0393524 1.1977615-.1743546 1.6425552-.5981674l9.5229874-9.0738258c1.0957947-1.0441324 1.0957947-2.8035585 0-3.8476869z" fill="#4da0dc" data-original="#4DA0DC"/><path d="m23.5632877 77.0369339 9.5229816 9.0737076c.4447975.4239273 1.0338936.6375275 1.6425552.598175l41.6780281-4.5442734c.7975922-.0515747 1.4375534-.9666824 1.4375534-2.0445251v-10.0138855c0-1.0778427-.6399612-1.9930344-1.4375534-2.0446014l-41.6780281-4.5442734c-.6086617-.0393562-1.1977577.1743507-1.6425552.5981674l-9.5229816 9.073822c-1.0958004 1.0441284-1.0958004 2.8035584 0 3.8476868z" fill="#de594e" data-original="#DE594E"/><path d="m80.1358032 102.0039062h-18.1177635c-1.2583923 0-2.2785416 1.0202332-2.2785416 2.2786255v5.2797012h22.674839v-5.2797012c.0000001-1.2583923-1.0201415-2.2786255-2.2785339-2.2786255z" fill="#fed35b" data-original="#FED35B" class="active-path" style="fill:#FED35B"/></g> </svg>
