<?xml version="1.0"?>
<svg xmlns="http://www.w3.org/2000/svg" xmlns:xlink="http://www.w3.org/1999/xlink" version="1.1" id="Capa_1" x="0px" y="0px" viewBox="0 0 384 384" style="enable-background:new 0 0 384 384;" xml:space="preserve" width="512px" height="512px"><g><circle style="fill:#45B39C;" cx="192" cy="192" r="192" data-original="#45B39C"/><path style="opacity:0.1;enable-background:new    ;" d="M381.202,224.522L270.2,113.52v19.32h-68.8c-8.56,0-16.52,4.2-21.76,11.56  l-12.247,17.191l-20.512-20.512l-0.001,0.005c-5.08-5.271-11.799-8.244-18.96-8.244H82v30.88l48.947,48.947l-5.427,7.613H82v30.88  l131.599,131.599C298.695,373.227,366.935,308.096,381.202,224.522z" data-original="#000000"/><rect x="262.48" y="132.84" style="fill:#F6C358;" width="7.72" height="30.876" data-original="#F6C358"/><polygon style="fill:#DC8744;" points="270.201,183.008 302,148.272 270.201,113.535 270.201,137.674 270.201,158.87 " data-original="#DC8744"/><rect x="262.48" y="220.28" style="fill:#D15241;" width="7.72" height="30.876" data-original="#D15241"/><polygon style="fill:#FFFFFF;" points="270.201,225.13 270.201,246.327 270.201,270.465 302,235.729 270.201,200.992 " data-original="#FFFFFF"/><g>
	<path style="fill:#E56353;" d="M149.672,144.404c-5.25-7.354-13.184-11.571-21.763-11.571H82v30.877h43.515l15.441,21.643   l18.966-26.581L149.672,144.404z" data-original="#E56353"/>
	<path style="fill:#E56353;" d="M179.648,239.588c5.247,7.358,13.181,11.579,21.767,11.579h61.065V220.29h-58.671l-15.441-21.642   l-18.966,26.58L179.648,239.588z" data-original="#E56353"/>
</g><polygon style="fill:#D15241;" points="140.956,185.353 169.403,225.227 188.368,198.647 159.922,158.772 " data-original="#D15241"/><path style="fill:#FCD462;" d="M201.416,132.833c-8.586,0-16.52,4.222-21.763,11.579l-54.141,75.878H82v30.878h45.909  c8.582,0,16.513-4.218,21.763-11.575l54.141-75.882h58.668v-30.877H201.416z" data-original="#FCD462" class="active-path"/></g> </svg>
