<?xml version="1.0"?>
<svg xmlns="http://www.w3.org/2000/svg" xmlns:xlink="http://www.w3.org/1999/xlink" version="1.1" id="Capa_1" x="0px" y="0px" viewBox="0 0 409.6 409.6" style="enable-background:new 0 0 409.6 409.6;" xml:space="preserve" width="512px" height="512px"><g><circle style="fill:#459AB3" cx="204.8" cy="204.8" r="204.8" data-original="#45B39C" class="active-path" data-old_color="#45B39C"/><path style="opacity:0.1;enable-background:new    ;" d="M403.158,255.96L238.202,91.005l-0.01,0.016  c-2.34-2.721-6.07-4.221-10.073-3.292c-4.693,1.109-7.722,5.675-7.722,10.454v19.466l11.755,51.471L154.81,91.778l-0.001,0.007  c-1.996-2.842-5.411-4.621-9.249-4.269c-5.333,0.469-9.174,5.418-9.174,10.794v62.763h-16.81c-0.085,0-0.128,0.043-0.128,0.128  v19.072c0,0.085,0.043,0.128,0.128,0.128h0.043c0.93,24.662,11.821,46.292,28.204,59.933l25.786,25.785l5.061,27.178  c0,0.043,0.085,0.085,0.128,0.085l101.706,101.706C340.654,371.136,386.805,319.549,403.158,255.96z" data-original="#000000"/><path style="fill:#2F4859;" d="M221.804,322.133c-17.935,0-34.771-26.959-36.675-30.106c-1.135-1.875-0.534-4.311,1.34-5.444  c1.873-1.139,4.311-0.533,5.446,1.336c4.613,7.611,19.106,27.211,30.646,26.252c5.145-0.403,9.638-5.213,13.353-14.296  c5.254-12.849,16.23-34.424,30.716-34.558c8.734,0.048,16.476,7.471,23.2,23.088c0.866,2.012-0.062,4.346-2.074,5.211  c-2.016,0.864-4.346-0.062-5.211-2.074c-5.153-11.97-10.61-18.293-15.783-18.293c-0.021,0-0.041,0-0.06,0  c-8.395,0.077-17.876,16.01-23.444,29.628c-4.944,12.088-11.701,18.548-20.084,19.203  C222.718,322.116,222.261,322.133,221.804,322.133z" data-original="#2F4859"/><g>
	<path style="fill:#3A556A;" d="M144.089,198.71c-4.67-1.084-7.71-5.641-7.71-10.436V98.292c0-5.366,3.854-10.302,9.198-10.783   c6.022-0.543,11.079,4.187,11.079,10.096v91.248C156.656,195.244,150.742,200.254,144.089,198.71z" data-original="#3A556A"/>
	<path style="fill:#3A556A;" d="M228.099,198.71c-4.67-1.084-7.71-5.641-7.71-10.436v-90.09c0-4.794,3.04-9.351,7.71-10.436   c6.653-1.544,12.567,3.466,12.567,9.857v91.248C240.666,195.244,234.752,200.254,228.099,198.71z" data-original="#3A556A"/>
	<path style="fill:#3A556A;" d="M198.249,293.396h-19.455c-0.061,0-0.113-0.044-0.125-0.104l-7.885-42.284   c-0.015-0.078,0.045-0.15,0.125-0.15h35.224c0.079,0,0.139,0.072,0.125,0.15l-7.885,42.284   C198.363,293.353,198.31,293.396,198.249,293.396z" data-original="#3A556A"/>
</g><path style="fill:#64798A;" d="M257.598,176.941c0,43.443-30.926,78.661-69.076,78.661s-69.076-35.218-69.076-78.661" data-original="#64798A"/><path style="fill:#EBF0F3" d="M257.471,180.411H119.573c-0.07,0-0.127-0.057-0.127-0.127v-19.081c0-0.07,0.057-0.127,0.127-0.127  h137.899c0.07,0,0.127,0.057,0.127,0.127v19.081C257.598,180.355,257.541,180.411,257.471,180.411z" data-original="#EBF0F3" class="" data-old_color="#EBF0F3"/></g> </svg>
