<?xml version="1.0"?>
<svg xmlns="http://www.w3.org/2000/svg" xmlns:xlink="http://www.w3.org/1999/xlink" version="1.1" id="Capa_1" x="0px" y="0px" viewBox="0 0 384 384" style="enable-background:new 0 0 384 384;" xml:space="preserve" width="512px" height="512px"><g><circle style="fill:#45B39C;" cx="192" cy="192" r="192" data-original="#45B39C"/><path style="opacity:0.1;enable-background:new    ;" d="M383.9,195.98L269.92,82H114.08v114.56c0,2.944,1.188,5.608,3.101,7.557  l-0.006,0.004l0.05,0.049c0.015,0.016,0.03,0.03,0.046,0.046l52.316,52.316c-0.214,0.888-0.396,1.784-0.626,2.668  c-0.92,3.52-1.44,10.84-1.44,13.76c0,0.48,0.08,0.96,0.08,1.44c-0.04,1-0.08,1.84-0.08,2.48c0,5.802,1.991,11.127,5.298,15.378  l-0.006,0.006l0.042,0.043c1.268,1.621,2.725,3.079,4.347,4.346l76.99,76.99C328.499,348.206,382.215,278.505,383.9,195.98z" data-original="#000000"/><path style="fill:#31978C;" d="M269.924,155.018v-13.089v-56H114.076v56v13.089l0,0v41.544c0,5.972,4.841,10.812,10.813,10.812  h47.985v27.958c0,9.405-1.546,18.702-3.919,27.803c-0.918,3.518-1.42,10.826-1.42,13.742c0,13.876,11.249,25.124,25.125,25.124  c13.876,0,25.125-11.249,25.125-25.124c0-2.916-0.501-10.223-1.42-13.742c-2.374-9.101-3.92-18.398-3.92-27.803v-27.958h46.665  c5.972,0,10.813-4.84,10.813-10.812V155.018L269.924,155.018z M192.66,290.739c-4.163,0-7.537-4.03-7.537-9.003  c0-4.972,3.374-9.003,7.537-9.003s7.537,4.03,7.537,9.003C200.198,286.708,196.824,290.739,192.66,290.739z" data-original="#31978C"/><path style="fill:#DC8744;" d="M216.366,259.206c-2.374-9.101-3.92-18.398-3.92-27.803v-27.958h-39.572v27.958  c0,9.405-1.546,18.702-3.919,27.803c-0.918,3.518-1.42,10.826-1.42,13.742c0,13.876,11.249,25.124,25.125,25.124  c13.876,0,25.125-11.249,25.125-25.124C217.785,270.031,217.284,262.724,216.366,259.206z M192.66,286.81  c-4.163,0-7.537-4.031-7.537-9.003c0-4.972,3.374-9.003,7.537-9.003s7.537,4.03,7.537,9.003  C200.198,282.78,196.824,286.81,192.66,286.81z" data-original="#DC8744"/><path style="fill:#EBF0F3;" d="M114.076,151.09v41.543c0,5.972,4.841,10.812,10.813,10.812h134.222  c5.972,0,10.813-4.841,10.813-10.812V151.09H114.076z" data-original="#EBF0F3"/><rect x="114.076" y="138" style="fill:#64798A;" width="155.848" height="13.088" data-original="#64798A"/><g>
	<rect x="114.076" y="82" style="fill:#E56353" width="155.848" height="56" data-original="#E56353" class="active-path" data-old_color="#E56353"/>
	<path style="fill:#E56353" d="M236.395,138v26.38c0,4.982,4.039,9.02,9.021,9.02s9.02-4.038,9.02-9.02V138H236.395z" data-original="#E56353" class="active-path" data-old_color="#E56353"/>
	<path style="fill:#E56353" d="M218.354,138v6.737c0,4.982,4.039,9.02,9.02,9.02c4.982,0,9.02-4.038,9.02-9.02V138H218.354z" data-original="#E56353" class="active-path" data-old_color="#E56353"/>
	<path style="fill:#E56353" d="M130.944,138v14.594c0,4.982,4.039,9.02,9.02,9.02c4.982,0,9.02-4.038,9.02-9.02V138H130.944z" data-original="#E56353" class="active-path" data-old_color="#E56353"/>
</g></g> </svg>
