<?xml version="1.0"?>
<svg xmlns="http://www.w3.org/2000/svg" enable-background="new 0 0 140 140" height="512px" viewBox="0 0 140 140" width="512px"><g transform="matrix(1.09358 0 0 1.09358 -6.55031 -6.55031)"><circle cx="70" cy="70" fill="#fed35b" r="64" data-original="#FED35B"/><path d="m109.7906952 48.0370102c-.4199829-.5899658-1.1099854-.9699707-1.8900146-.9699707h-12.0499879l-9.039978-9.0300293-.1500244-.1599731c-.6699829-.7299805-1.6300049-1.1799927-2.7000122-1.1799927h-27.9199867c-2.039978 0-3.6900024 1.6500244-3.6900024 3.6900024v6.6799927h-20.25c-1.2800274 0-2.3099957 1.0300293-2.3099957 2.3099976v47.0099487c0 .7700195.3699951 1.4500732.9400024 1.8601074l35.6376953 35.6439285c1.2026978.0672607 2.4121704.1090088 3.6316528.1090088 34.6095581 0 62.7842407-27.4765701 63.944458-61.8034134l-24.1238403-24.1195679z" opacity=".1" data-original="#000000"/><path d="m36.50383 97.9809036.9494667 5.3197556h10.5836067l.9494667-5.3197556z" fill="#293b44" data-original="#293B44"/><path d="m91.0136261 97.9809036.9494705 5.3197556h10.5836029l.9494705-5.3197556z" fill="#293b44" data-original="#293B44"/><path d="m55.9257507 50.0649071v-7.9853783c0-.9973259.8084946-1.8058205 1.8058205-1.8058205h24.5368538c.9973297 0 1.8058243.8084946 1.8058243 1.8058205v7.9853783h3.5744171v-9.6795006c0-2.0357819-1.6503296-3.6861115-3.6861191-3.6861115h-27.9250984c-2.0357819 0-3.6861115 1.6503296-3.6861115 3.6861115v9.6795006z" fill="#19282f" data-original="#19282F"/><path d="m107.9036865 47.0649071h-75.8073196c-1.2749557 0-2.3085117 1.0335541-2.3085117 2.3084564v47.0148048c0 1.2749557 1.033556 2.3084564 2.3085117 2.3084564h75.8073196c1.2749023 0 2.3084564-1.0335007 2.3084564-2.3084564v-47.0148048c0-1.2749023-1.033554-2.3084564-2.3084564-2.3084564z" fill="#3ea69b" data-original="#3EA69B"/><path d="m41.004448 47.064907h3.481311v51.631718h-3.481311z" fill="#31978c" data-original="#31978C"/><path d="m95.514244 47.064907h3.481311v51.631718h-3.481311z" fill="#31978c" data-original="#31978C"/><circle cx="70" cy="72.881" fill="#d5d6db" r="16.166" data-original="#D5D6DB"/><circle cx="70" cy="72.881" fill="#ebf0f3" r="13.841" data-original="#EBF0F3"/><g fill="#32786a"><path d="m72.9789963 68.4421921c-.3378677-1.5935974-1.9260559-2.730896-3.6854477-2.3327408-1.1101151.2512207-2.0112 1.1546707-2.2601166 2.2653046-.4532623 2.0223236 1.1213455 3.8165359 3.0837097 3.7425385 1.3440933-.0506821 2.6847305.4274063 3.4455795 1.5365829 2.5152665 3.6667709-.0726699 7.6006927-3.5627212 7.6006927-2.2182922 0-4.0721359-1.5892792-4.4827805-3.6890793-.0896454-.4583893.2884827-.8784485.7555542-.8784485.3704987 0 .6713867.2698593.74823.6323013.338623 1.5971375 1.933136 2.7359543 3.6972122 2.3300781 1.1050491-.2542496 2.0001831-1.1558838 2.2482834-2.2623367.4534988-2.0224457-1.12117-3.8168488-3.0836411-3.7428513-1.344101.0506821-2.6847458-.4274216-3.4455948-1.5366058-2.5152396-3.6667632.072693-7.6006698 3.5627366-7.6006698 2.2182922 0 4.0721359 1.5892792 4.4827805 3.6890869.0896454.4583893-.2884827.8784409-.7555542.8784409-.3704987 0-.6713868-.2698593-.74823-.6322937z" data-original="#32786A" class="active-path" style="fill:#32786A"/><path d="m70 63.0250359c-.4195862 0-.759697.3401108-.759697.759697v1.4938393h1.5193939v-1.4938393c.0000001-.4195863-.3401107-.759697-.7596969-.759697z" data-original="#32786A" class="active-path" style="fill:#32786A"/><path d="m70 82.736496c.4195862 0 .759697-.3401108.759697-.7597046v-1.4938354h-1.519394v1.4938354c0 .4195938.3401108.7597046.759697.7597046z" data-original="#32786A" class="active-path" style="fill:#32786A"/></g></g> </svg>
