<?xml version="1.0"?>
<svg xmlns="http://www.w3.org/2000/svg" xmlns:xlink="http://www.w3.org/1999/xlink" version="1.1" id="Layer_1" x="0px" y="0px" viewBox="0 0 100 100" enable-background="new 0 0 100 100" xml:space="preserve" width="512px" height="512px"><g transform="matrix(1.0405 0 0 1.0405 -2.025 -2.025)"><g>
	<circle fill="#EFC84A" cx="50" cy="50" r="48" data-original="#EFC84A"/>
	<path opacity="0.1" d="M67.1599731,29.2291031l-2.75-2.75l-1.3099976,0.5800781l-2.539978-2.5400391L58.8699951,25.60923   l-2.4299927-2.4300537l-1.9000244,1.7000732l-2.3800049-2.380127l-1.9299927,2.3901367l-2.3899536-2.3901367l-1.7200317,2.9799805   l-2.5599976-2.2999268l-1.2299805,3.210083l-2.8900146-1.8701172l-0.710022,3.3601074l-3.1399536-1.4001465l-0.1800537,3.4400635   l-3.3299561-0.9000244l0.3699951,3.4300537l-3.4299927-0.3599854l0.8899536,3.3199463l-3.4299927,0.1800537l1.4000244,3.1398926   l-3.3699951,0.710083l1.8800049,2.8900146l-3.210022,1.2299805l2.2999878,2.5600586L22.5,47.8392105l2.3900146,2.3898926   L22.5,52.1691666l2.3800049,2.3800049l-1.7000122,1.8900146l2.4299927,2.4300537l-1.0999756,1.6899414l2.5499878,2.5500488   l-0.5800171,1.2999268l2.7399902,2.7399902l-0.1999512,0.7700195l27.5,27.5l1.84021,1.84021   C78.1659546,93.7786636,93.779541,78.16465,97.2596436,58.3587418L67.9199829,29.0191422L67.1599731,29.2291031z" data-original="#000000"/>
	<g>
		<polygon fill="#E56353" points="50,25.1734676 52.164299,22.4999981 53.883728,25.4791222 56.4395981,23.1771393     57.6718216,26.3885632 60.5563354,24.5147495 61.2710114,27.8793964 64.4131393,26.4798889 64.5926743,29.9149132     67.9150467,29.0241737 67.5550079,32.4449883 70.9758301,32.0849533 70.0850906,35.4073296 73.5201111,35.5868568     72.1206055,38.7289886 75.4852524,39.4436646 73.6114349,42.3281784 76.8228607,43.5604019 74.520874,46.116272 77.5,47.835701     74.8265305,50 77.5,52.1642952 74.520874,53.8837242 76.8228607,56.4395981 73.6114349,57.6718178 75.4852524,60.5563354     72.1206055,61.2710075 73.5201111,64.4131393 70.0850906,64.5926666 70.9758301,67.9150467 67.5550079,67.5550079     67.9150467,70.9758224 64.5926743,70.085083 64.4131393,73.5201111 61.2710114,72.1205978 60.5563354,75.4852448     57.6718216,73.6114349 56.4395981,76.8228607 53.883728,74.520874 52.164299,77.5 50,74.8265305 47.8357048,77.5     46.1162758,74.520874 43.5604019,76.8228607 42.3281822,73.6114349 39.4436646,75.4852448 38.7289925,72.1205978     35.5868607,73.5201111 35.4073334,70.085083 32.0849533,70.9758224 32.4449921,67.5550079 29.0241756,67.9150467     29.9149151,64.5926666 26.4798927,64.4131393 27.8793983,61.2710075 24.5147514,60.5563354 26.388567,57.6718178     23.1771431,56.4395981 25.479126,53.8837242 22.5000019,52.1642952 25.1734695,50 22.5000019,47.835701 25.479126,46.116272     23.1771431,43.5604019 26.388567,42.3281784 24.5147514,39.4436646 27.8793983,38.7289886 26.4798927,35.5868568     29.9149151,35.4073296 29.0241756,32.0849533 32.4449921,32.4449883 32.0849533,29.0241737 35.4073334,29.9149132     35.5868607,26.4798889 38.7289925,27.8793964 39.4436646,24.5147495 42.3281822,26.3885632 43.5604019,23.1771393     46.1162758,25.4791222 47.8357048,22.4999981   " data-original="#E56353"/>
		<g>
			<path fill="#D15241" d="M50.0004005,70.7712326c-11.453125,0-20.7714844-9.3178749-20.7714844-20.7709999     c0-11.4536133,9.3183594-20.7714844,20.7714844-20.7714844s20.770504,9.3178711,20.770504,20.7714844     C70.7709045,61.4533577,61.4535255,70.7712326,50.0004005,70.7712326z M50.0004005,31.2287483     c-10.3505859,0-18.7714844,8.4208984-18.7714844,18.7714844s8.4208984,18.7709999,18.7714844,18.7709999     c10.3496094,0,18.770504-8.420414,18.770504-18.7709999S60.3500099,31.2287483,50.0004005,31.2287483z" data-original="#D15241"/>
		</g>
		<g>
			<path fill="#FFFFFF" d="M41.3758545,43.1493073h1.4738503v13.7013626h-1.5988731l-4.9460411-9.9966736v9.9966736h-1.4738503     V43.1493073h1.4738503l5.071064,10.2319565V43.1493073z" data-original="#FFFFFF" class="active-path" style="fill:#FFFFFF"/>
			<path fill="#FFFFFF" d="M51.4051514,43.1493073v2.1757584H46.746769v3.6265259h4.1837006v2.0577164H46.746769v3.6656036     h4.8088188v2.1757584h-6.2826691V43.1493073H51.4051514z" data-original="#FFFFFF" class="active-path" style="fill:#FFFFFF"/>
			<path fill="#FFFFFF" d="M56.1641617,53.0088005l1.9485321-9.8594933h1.3234177l1.9485321,9.8594933l2.1985779-9.8594933     h1.5856628l-3.0473175,13.7013626h-1.4616508l-1.8357048-9.3889313h-0.0996132l-1.8367233,9.3889313h-1.4606361     l-3.0483284-13.7013626h1.5866737L56.1641617,53.0088005z" data-original="#FFFFFF" class="active-path" style="fill:#FFFFFF"/>
		</g>
	</g>
</g></g> </svg>
