<?xml version="1.0"?>
<svg xmlns="http://www.w3.org/2000/svg" enable-background="new 0 0 140 140" height="512px" viewBox="0 0 140 140" width="512px" class=""><g transform="matrix(1.09347 1.33911e-16 -1.33911e-16 1.09347 -6.54265 -6.54265)"><circle cx="70" cy="70" fill="#e05b49" r="64" data-original="#E05B49" class="" style="fill:#E05B49"/><path d="m40.1200104 94.8449783 1.2399902 1.2400513c.7900391.8599854 1.6199951 1.6799927 2.4700317 2.4699707l34.8438721 34.8438644c28.4144897-3.852417 50.8925171-26.3411179 54.7294922-54.7604904l-35.6033935-35.6033935c-1.0700073-1.0899658-2.1900024-2.1300049-3.3699951-3.0899658-6.6699829-5.4299927-15.1699829-8.6900024-24.4299927-8.6900024-21.4000244 0-38.7399902 17.3499756-38.7399902 38.75 0 9.4199829 3.3599854 18.0499878 8.9500122 24.7600098z" opacity=".1" data-original="#000000" class="" style="fill:#000000"/><path d="m108.7442474 70c0 21.4061737-17.3477097 38.7442474-38.7442474 38.7442474-11.9816513 0-22.6944351-5.4338684-29.7943344-13.9769821-5.5888748-6.7124328-8.9499092-15.3427505-8.9499092-24.7672653 0-21.396534 17.3477097-38.7442436 38.7442436-38.7442436 9.2598724 0 17.7642593 3.2545013 24.428215 8.6883698 8.736847 7.0902023 14.3160324 17.9192123 14.3160324 30.0558738z" fill="#f4c85b" data-original="#F4C85B" class="" style="fill:#F4C85B"/><ellipse cx="70.003" cy="70.005" fill="#efb250" rx="29.766" ry="29.766" transform="matrix(.987 -.16 .16 .987 -10.31 12.117)" data-original="#EFB250" class="" style="fill:#EFB250"/><path d="m84.6657791 71.9005966c-.5965576-.7886658-1.354866-1.4458237-2.2546692-1.9715958-.6774597-.4044571-1.4357681-.7279434-2.27491-.9706497 1.5266647-.7481842 2.6591187-1.7390137 3.4174271-2.9624329.7481766-1.2233505 1.1222687-2.5276756 1.1222687-3.9229546 0-1.4862442-.4246902-2.9118881-1.2739563-4.2768097-.8493271-1.3649178-2.0221405-2.375988-3.5185089-3.0332108-1.1323929-.5055351-2.5479126-.8088417-4.2465057-.9301682v-4.044281h-4.2667465v3.9836197h-2.1535873v-3.9836197h-4.2565613v3.9836197h-1.8098564v-.0101204h-4.762104v3.8218155h3.3567619v24.8117065h-3.3567619v3.8218079h3.3567619v.0101242h3.2151985v3.9937363h4.2565613v-3.9937363h2.1535873v3.9937363h4.2667465v-4.0240402c1.4154663-.0707779 2.6591187-.2427063 3.7207336-.5156555 1.4155197-.3539124 2.6085739-.8897476 3.5488663-1.5975037.9402847-.7077637 1.7390137-1.7188339 2.3759918-3.0230942.6470947-1.3042603.9706497-2.71978.9706497-4.2363892 0-1.8906934-.5358963-3.5286253-1.5873871-4.9239042zm-18.6239014-14.2965469h6.4809341c2.3355713 0 3.9836197.1516838 4.9340286.4549942.9605255.3033066 1.6985931.8593826 2.2142487 1.6783485s.7785416 1.7693748.7785416 2.8512268c0 1.1323929-.2730103 2.0726814-.8290863 2.8309822-.556076.7482452-1.3750381 1.2941971-2.4670105 1.6177521-.8290863.2527695-2.1940079.3740921-4.0948257.3740921h-7.0168304v-9.8073959zm15.1154557 21.9503555c-.4246368.7886047-.9705887 1.3952866-1.6379318 1.799675-.6672821.4145737-1.4862442.7077637-2.4770737.8897476-.5661926.1011429-1.5368423.1516876-2.9220047.1516876h-8.0784454v-11.1521377h7.5021286c2.062561 0 3.6499481.1819839 4.752037.5358963.6571579.2224045 1.2233582.5358353 1.7188339.9402847.3234863.2730103.6066208.586441.8593826.9504089.6167374.8897476.9301682 1.9412384.9301682 3.1545334 0 1.0313187-.2224045 1.9412384-.6470947 2.7299042z" fill="#cc903a" data-original="#CC903A" class="" style="fill:#CC903A"/><path d="m83.7154999 71.9005966c-.5965576-.7886658-1.3548584-1.4458237-2.2546692-1.9715958-.6774597-.4044571-1.4357605-.7279434-2.27491-.9706497 1.5266647-.7481842 2.6591263-1.7390137 3.4174271-2.9624329.7481842-1.2233505 1.1222687-2.5276756 1.1222687-3.9229546 0-1.4862442-.4246902-2.9118881-1.2739563-4.2768097-.8493271-1.3649178-2.0221405-2.375988-3.5185013-3.0332108-1.1323929-.5055351-2.5479202-.8088417-4.2465057-.9301682v-4.044281h-4.2667542v3.9836197h-2.1535797v-3.9836197h-4.2565689v3.9836197h-1.8098564v-.0101204h-4.7621002v3.8218155h3.3567619v24.8117065h-3.3567619v3.8218079h3.3567619v.0101242h3.2151947v3.9937363h4.2565689v-3.9937363h2.1535797v3.9937363h4.2667542v-4.0240402c1.4154587-.0707779 2.6591187-.2427063 3.720726-.5156555 1.4155273-.3539124 2.6085815-.8897476 3.5488663-1.5975037.9402924-.7077637 1.7390137-1.7188339 2.3759918-3.0230942.6471024-1.3042603.9706497-2.71978.9706497-4.2363892 0-1.8906934-.5358963-3.5286253-1.5873871-4.9239042zm-18.6238938-14.2965469h6.4809265c2.3355713 0 3.9836197.1516838 4.9340286.4549942.9605331.3033066 1.6985931.8593826 2.2142487 1.6783485s.7785416 1.7693748.7785416 2.8512268c0 1.1323929-.2730103 2.0726814-.8290863 2.8309822-.556076.7482452-1.3750381 1.2941971-2.4670105 1.6177521-.8290863.2527695-2.1940079.3740921-4.0948257.3740921h-7.0168228v-9.8073959zm15.115448 21.9503555c-.4246292.7886047-.9705887 1.3952866-1.6379318 1.799675-.6672745.4145737-1.4862442.7077637-2.4770737.8897476-.5661926.1011429-1.5368423.1516876-2.9220047.1516876h-8.0784378v-11.1521377h7.502121c2.062561 0 3.6499481.1819839 4.7520447.5358963.6571579.2224045 1.2233505.5358353 1.7188263.9402847.323494.2730103.6066208.586441.8593903.9504089.6167374.8897476.9301682 1.9412384.9301682 3.1545334-.0000001 1.0313187-.2224122 1.9412384-.6471025 2.7299042z" fill="#fcd462" data-original="#FCD462" class="active-path" style="fill:#FCD462"/></g> </svg>
