<?xml version="1.0"?>
<svg xmlns="http://www.w3.org/2000/svg" xmlns:xlink="http://www.w3.org/1999/xlink" version="1.1" id="Capa_1" x="0px" y="0px" viewBox="0 0 409.6 409.6" style="enable-background:new 0 0 409.6 409.6;" xml:space="preserve" width="512px" height="512px" class=""><g><circle style="fill:#EFC84A;" cx="204.8" cy="204.8" r="204.8" data-original="#EFC84A"/><path style="opacity:0.1;enable-background:new    ;" d="M403.36,255.084L255.563,107.287c-1.006-1.088-2.053-2.134-3.14-3.14  l-0.185-0.185l-0.001,0.005c-7.023-6.439-15.653-11.108-25.22-13.355l-6.152-6.151l-0.011,0.008c-1.68-1.59-3.928-2.585-6.432-2.585  c-4.735,0-8.576,3.456-9.301,7.978c-23.808,3.926-42.624,22.87-46.634,46.848c-4.309,0.897-7.552,4.694-7.552,9.259  c0,3.115,1.509,5.846,3.811,7.568l4.146,4.146c2.204,10.823,7.417,20.529,14.749,28.181l-0.017,0.009l0.303,0.302  c0.248,0.256,0.503,0.505,0.756,0.756l35.031,35.031l-33.076-4.527H135.66c-7.936,0-14.421,6.442-14.421,14.378v10.966  c0,0.786,0.274,1.484,0.649,2.119l-0.017,0.079l0.219,0.22c0.279,0.393,0.606,0.719,0.998,0.998l10.792,10.793H94.572  c-1.195,0-2.133,0.981-2.133,2.175v53.248c0,0.897,0.469,1.665,1.109,2.092h-6.101v5.248c0,0.976,0.445,1.828,1.099,2.514  l-0.025,0.029l0.21,0.209c0.03,0.027,0.053,0.058,0.084,0.084l84.622,84.622c10.225,1.572,20.698,2.391,31.363,2.391  C300.556,409.6,380.942,343.876,403.36,255.084z" data-original="#000000"/><g>
	<rect x="99.81" y="313.22" style="fill:#EBF0F3;" width="6.353" height="4.233" data-original="#EBF0F3"/>
	<rect x="152.74" y="313.22" style="fill:#EBF0F3;" width="6.353" height="4.233" data-original="#EBF0F3"/>
</g><path style="fill:#3EA69B;" d="M169.991,259.17c0-1.195-0.969-2.164-2.164-2.164H94.589c-1.195,0-2.164,0.969-2.164,2.164v45.015  h77.566V259.17z" data-original="#3EA69B" class=""/><path style="fill:#31978C;" d="M92.425,302.889v9.515c0,1.34,0.969,2.427,2.164,2.427h73.239c1.195,0,2.164-1.087,2.164-2.427  v-9.515H92.425z" data-original="#31978C"/><rect x="96.66" y="261.25" style="fill:#D5D6DB;" width="69.1" height="47.804" data-original="#D5D6DB"/><path style="fill:#44C4A1;" d="M174.95,314.494v5.266c0,2.189-2.009,3.963-4.487,3.963h-78.51c-2.478,0-4.487-1.774-4.487-3.963  v-5.266H174.95z" data-original="#44C4A1"/><g>
	<path style="fill:#EBF0F3;" d="M139.064,320.96h-15.712c-1.018,0-1.851-0.833-1.851-1.851l0,0c0-1.018,0.833-1.851,1.851-1.851   h15.712c1.018,0,1.851,0.833,1.851,1.851l0,0C140.915,320.127,140.082,320.96,139.064,320.96z" data-original="#EBF0F3"/>
	<circle style="fill:#EBF0F3;" cx="130.19" cy="259.07" r="1.579" data-original="#EBF0F3"/>
</g><g>
	<circle style="fill:#D5D6DB;" cx="130.19" cy="259.07" r="0.956" data-original="#D5D6DB"/>
	<path style="fill:#D5D6DB;" d="M135.04,320.96h-7.663c-1.018,0-1.851-0.833-1.851-1.851l0,0c0-1.018,0.833-1.851,1.851-1.851h7.663   c1.018,0,1.851,0.833,1.851,1.851l0,0C136.891,320.127,136.058,320.96,135.04,320.96z" data-original="#D5D6DB"/>
</g><rect x="213.8" y="314.58" style="fill:#2F4859;" width="22.09" height="7" data-original="#2F4859"/><path style="fill:#64798A;" d="M264.346,258.641c0-1.217-0.987-2.204-2.204-2.204h-74.591c-1.217,0-2.204,0.987-2.204,2.204v45.846  h78.998L264.346,258.641L264.346,258.641z" data-original="#64798A"/><rect x="189.65" y="260.74" style="fill:#D5D6DB;" width="70.38" height="43.742" data-original="#D5D6DB"/><path style="fill:#64798A;" d="M185.348,304.486v8.639c0,1.217,0.987,2.204,2.204,2.204h74.591c1.217,0,2.204-0.987,2.204-2.204  v-8.639H185.348z" data-original="#64798A"/><circle style="fill:#D5D6DB;" cx="224.85" cy="309.89" r="2.995" data-original="#D5D6DB"/><path style="fill:#64798A;" d="M238.571,321.084h-27.447c-2.769,0-5.014,2.245-5.014,5.014l0,0h37.476l0,0  C243.585,323.329,241.34,321.084,238.571,321.084z" data-original="#64798A"/><path style="fill:#DC8744;" d="M315.607,327.705h-32.559c-3.183,0-5.763-2.58-5.763-5.763V261.42c0-3.273,2.653-5.927,5.927-5.927  h32.681c3.447,0,6.241,2.794,6.241,6.241v59.445C322.133,324.783,319.212,327.705,315.607,327.705z" data-original="#DC8744"/><path style="fill:#D5D6DB;" d="M313.509,262.775H285.91c-2.024,0-3.665,1.641-3.665,3.666v50.98c0,2.024,1.641,3.666,3.665,3.666  h27.599c2.025,0,3.666-1.642,3.666-3.666v-50.98C317.175,264.415,315.534,262.775,313.509,262.775z" data-original="#D5D6DB"/><ellipse style="fill:#FFFFFF;" cx="297.47" cy="324.35" rx="1.894" ry="2.074" data-original="#FFFFFF"/><ellipse style="fill:#EBF0F3;" cx="297.47" cy="324.35" rx="1.455" ry="1.591" data-original="#EBF0F3"/><path style="fill:#D5D6DB;" d="M297.666,325.352h-0.407c-0.386,0-0.701-0.347-0.701-0.772v-0.457c0-0.426,0.315-0.772,0.701-0.772  h0.407c0.386,0,0.701,0.347,0.701,0.772v0.457C298.367,325.005,298.053,325.352,297.666,325.352z M297.26,323.608  c-0.258,0-0.467,0.23-0.467,0.514v0.457c0,0.284,0.209,0.514,0.467,0.514h0.407c0.258,0,0.467-0.23,0.467-0.514v-0.457  c0-0.284-0.209-0.514-0.467-0.514H297.26z" data-original="#D5D6DB"/><path style="fill:#FFFFFF;" d="M303.44,260.456h-9.449c-0.259,0-0.47-0.21-0.47-0.47l0,0c0-0.259,0.21-0.47,0.47-0.47h9.449  c0.259,0,0.47,0.21,0.47,0.47l0,0C303.909,260.246,303.699,260.456,303.44,260.456z" data-original="#FFFFFF"/><path style="fill:#27A2DB;" d="M214.262,247.026c-0.006,0-0.01,0-0.017,0c-2.356-0.008-4.258-1.925-4.25-4.283l0.16-42.154  c0.008-2.35,1.917-4.25,4.267-4.25c0.006,0,0.01,0,0.017,0c2.356,0.008,4.258,1.925,4.25,4.283l-0.16,42.154  C218.52,245.126,216.612,247.026,214.262,247.026z" data-original="#27A2DB"/><g>
	<path style="fill:#3A556A;" d="M266.775,150.173H160.041c-1.506,0-2.727-1.221-2.727-2.727c0-1.506,1.221-2.727,2.727-2.727   h106.734c1.506,0,2.727,1.221,2.727,2.727C269.502,148.952,268.281,150.173,266.775,150.173z" data-original="#3A556A"/>
	<path style="fill:#3A556A;" d="M214.388,123.975c-25.331,0-42.235-11.142-42.486-11.312l3.053-4.52   c0.349,0.239,35.651,23.347,80.242-0.151l2.544,4.826C241.87,121.18,227.071,123.975,214.388,123.975z" data-original="#3A556A"/>
	<path style="fill:#3A556A;" d="M254.931,186.164c-40.649-27.759-78.318-1.189-79.901-0.044l-3.202-4.415   c0.418-0.304,42.288-30.012,86.18-0.046L254.931,186.164z" data-original="#3A556A"/>
	<path style="fill:#3A556A;" d="M202.813,200.605c-40.786-65.721-0.053-108.817,0.364-109.246l3.908,3.805l-1.954-1.903l1.958,1.899   c-1.575,1.628-38.108,40.583,0.36,102.567L202.813,200.605z" data-original="#3A556A"/>
	<rect x="211.71" y="91.77" style="fill:#3A556A;" width="5.453" height="108.88" data-original="#3A556A"/>
	<path style="fill:#3A556A;" d="M224.519,200.605l-4.636-2.876c38.468-61.984,1.935-100.94,0.36-102.567l3.912-3.802   C224.572,91.787,265.305,134.884,224.519,200.605z" data-original="#3A556A"/>
	<path style="fill:#3A556A;" d="M214.262,203.383c-31.217,0-56.616-25.646-56.616-57.169s25.399-57.169,56.616-57.169   s56.616,25.646,56.616,57.169S245.48,203.383,214.262,203.383z M214.262,94.5c-28.211,0-51.162,23.199-51.162,51.715   s22.951,51.715,51.162,51.715s51.162-23.199,51.162-51.715S242.473,94.5,214.262,94.5z" data-original="#3A556A"/>
</g><circle style="fill:#E56353;" cx="213.42" cy="147.45" r="9.463" data-original="#E56353" class="active-path"/><circle style="fill:#64798A;" cx="267.22" cy="147.45" r="9.463" data-original="#64798A"/><circle style="fill:#44C4A1;" cx="160.4" cy="145.96" r="9.463" data-original="#44C4A1"/><circle style="fill:#27A2DB;" cx="214.44" cy="91.36" r="9.463" data-original="#27A2DB"/><circle style="fill:#DC8744;" cx="214.44" cy="200.62" r="9.463" data-original="#DC8744"/><path style="fill:#27A2DB;" d="M303.91,247.026c-2.356,0-4.267-1.908-4.267-4.267v-16.808H135.662c-3.235,0-5.869,2.633-5.869,5.867  v10.942c0,2.358-1.91,4.267-4.267,4.267c-2.356,0-4.267-1.908-4.267-4.267v-10.942c0-7.942,6.46-14.4,14.402-14.4h172.515v25.342  C308.176,245.117,306.266,247.026,303.91,247.026z" data-original="#27A2DB"/></g> </svg>
