<?xml version="1.0"?>
<svg xmlns="http://www.w3.org/2000/svg" xmlns:xlink="http://www.w3.org/1999/xlink" version="1.1" id="Capa_1" x="0px" y="0px" viewBox="0 0 409.6 409.6" style="enable-background:new 0 0 409.6 409.6;" xml:space="preserve" width="512px" height="512px"><g><circle style="fill:#45B39C;" cx="204.8" cy="204.8" r="204.8" data-original="#45B39C"/><path style="opacity:0.1;enable-background:new    ;" d="M409.173,215.467L306.347,112.64c-4.693-5.12-11.52-8.533-18.773-8.533  H129.28c-14.08,0-25.173,11.093-25.173,25.173v17.067c0,7.253,2.987,14.08,8.107,18.773l20.053,20.053h-2.987  c-6.827,0-13.227,2.987-17.92,7.253c-4.693,4.693-7.253,11.093-7.253,17.92v17.067c0,6.827,2.987,13.227,7.253,17.92l47.36,49.92  l-40.533-5.973l-11.947-8.533c-1.707-0.853-3.84-1.28-5.973-1.28c-7.253,0-12.8,5.547-12.8,12.8c0,2.987,0.853,5.12,2.56,7.253l0,0  l0,0c0.853,0.853,1.707,2.133,2.56,2.56l106.667,106.667c1.707,0,3.84,0,5.547,0C314.453,409.6,403.627,323.413,409.173,215.467z" data-original="#000000"/><g>
	<rect x="202.24" y="247.89" style="fill:#3A556A;" width="8.96" height="42.24" data-original="#3A556A"/>
	<path style="fill:#3A556A;" d="M176.213,296.533H104.96c-2.56,0-4.693-2.133-4.693-4.693s2.133-4.693,4.693-4.693h71.253   c2.56,0,4.693,2.133,4.693,4.693C180.48,294.827,178.347,296.533,176.213,296.533z" data-original="#3A556A"/>
	<path style="fill:#3A556A;" d="M308.907,296.533h-71.253c-2.56,0-4.693-2.133-4.693-4.693s2.133-4.693,4.693-4.693h71.253   c2.56,0,4.693,2.133,4.693,4.693C313.6,294.827,311.467,296.533,308.907,296.533z" data-original="#3A556A"/>
</g><g>
	<path style="fill:#64798A;" d="M230.4,304.64h-46.933c-3.84,0-7.253-3.413-7.253-7.253v-10.24c0-3.84,3.413-7.253,7.253-7.253   H230.4c3.84,0,7.253,3.413,7.253,7.253v10.24C237.653,301.227,234.667,304.64,230.4,304.64z" data-original="#64798A"/>
	<circle style="fill:#64798A;" cx="100.27" cy="292.69" r="12.8" data-original="#64798A"/>
	<circle style="fill:#64798A;" cx="309.33" cy="292.27" r="12.8" data-original="#64798A"/>
</g><path style="fill:#F6C358;" d="M287.573,171.947H129.28c-14.08,0-25.173-11.093-25.173-25.173v-17.067  c0-14.08,11.093-25.173,25.173-25.173h158.293c14.08,0,25.173,11.093,25.173,25.173v17.067  C312.747,160.427,301.653,171.947,287.573,171.947z" data-original="#F6C358"/><path style="fill:#FCD462;" d="M206.507,171.947H129.28c-14.08,0-25.173-11.093-25.173-25.173v-17.067  c0-14.08,11.093-25.173,25.173-25.173h77.227L206.507,171.947L206.507,171.947z" data-original="#FCD462"/><g>
	<circle style="fill:#D5D6DB;" cx="139.95" cy="137.81" r="21.333" data-original="#D5D6DB"/>
	<circle style="fill:#D5D6DB;" cx="278.61" cy="137.81" r="21.333" data-original="#D5D6DB"/>
</g><path style="fill:#D15241;" d="M287.573,252.587H129.28c-14.08,0-25.173-11.093-25.173-25.173v-17.067  c0-14.08,11.093-25.173,25.173-25.173h158.293c14.08,0,25.173,11.093,25.173,25.173v17.067  C312.747,241.493,301.653,252.587,287.573,252.587z" data-original="#D15241"/><path style="fill:#E56353" d="M206.507,252.587H129.28c-14.08,0-25.173-11.093-25.173-25.173v-17.067  c0-14.08,11.093-25.173,25.173-25.173h77.227L206.507,252.587L206.507,252.587z" data-original="#E56353" class="active-path" data-old_color="#E56353"/><g>
	<circle style="fill:#D5D6DB;" cx="139.95" cy="218.88" r="21.333" data-original="#D5D6DB"/>
	<circle style="fill:#D5D6DB;" cx="278.61" cy="218.88" r="21.333" data-original="#D5D6DB"/>
	<rect x="167.68" y="129.28" style="fill:#D5D6DB;" width="83.2" height="17.493" data-original="#D5D6DB"/>
	<rect x="167.68" y="212.48" style="fill:#D5D6DB;" width="83.2" height="17.493" data-original="#D5D6DB"/>
</g></g> </svg>
