<?xml version="1.0"?>
<svg xmlns="http://www.w3.org/2000/svg" xmlns:xlink="http://www.w3.org/1999/xlink" version="1.1" id="Capa_1" x="0px" y="0px" viewBox="0 0 491.52 491.52" style="enable-background:new 0 0 491.52 491.52;" xml:space="preserve" width="512px" height="512px"><g><circle style="fill:#E05B49;" cx="245.76" cy="245.76" r="245.76" data-original="#E05B49"/><path style="opacity:0.1;enable-background:new    ;" d="M482.84,310.501L357.683,185.344c-7.322-7.321-16.589-11.418-26.163-12.339  l-55.552-55.552c-16.691-16.691-43.725-16.691-60.416,0s-16.691,43.725,0,60.416l109.824,109.824l-17.255,11.827l-11.622-11.571  l-1.177-1.177l-0.153-0.154c-1.638-1.485-3.584-2.611-5.786-3.277l-68.148-21.043c-4.556-1.382-9.472-1.28-13.926,0.359  l-26.317,9.625l-10.957-10.956H104.96V386.56l101.857,101.857c12.688,2.021,25.687,3.103,38.943,3.103  C359.074,491.52,454.419,414.807,482.84,310.501z" data-original="#000000"/><circle style="fill:#FCD462;" cx="245.76" cy="147.67" r="42.706" data-original="#FCD462"/><circle style="fill:#F6C358;" cx="245.76" cy="147.67" r="35.579" data-original="#F6C358"/><path style="fill:#DC8744;" d="M244.292,175.355v-4.877c-6.105-0.622-11.585-3.05-16.435-7.279l4.877-5.812  c3.74,3.251,7.589,5.186,11.558,5.812v-12.961c-5.034-1.201-8.72-2.783-11.058-4.743s-3.507-4.866-3.507-8.717  c0-3.852,1.343-7.002,4.039-9.454c2.697-2.449,6.203-3.784,10.525-4.007v-3.341h4.273v3.406c4.898,0.359,9.53,2.028,13.896,5.012  l-4.344,6.146c-2.941-2.093-6.122-3.384-9.552-3.876v12.558h0.201c5.121,1.204,8.883,2.83,11.286,4.877  c2.408,2.05,3.61,5.023,3.61,8.919c0,3.898-1.381,7.073-4.143,9.519c-2.762,2.452-6.41,3.787-10.955,4.009v4.809H244.292z   M239.579,132.236c-1.136,1-1.702,2.248-1.702,3.74s0.446,2.672,1.337,3.539c0.886,0.87,2.582,1.704,5.078,2.506v-11.558  C242.286,130.643,240.715,131.233,239.579,132.236z M253.643,161.528c1.245-1.022,1.87-2.313,1.87-3.874  c0-1.558-0.489-2.794-1.468-3.708c-0.984-0.913-2.811-1.77-5.48-2.571v12.023C250.702,163.178,252.393,162.552,253.643,161.528z" data-original="#DC8744"/><circle style="fill:#2D93BA;" cx="327.48" cy="215.55" r="42.706" data-original="#2D93BA"/><circle style="fill:#27A2DB;" cx="327.48" cy="215.55" r="35.579" data-original="#27A2DB"/><path style="fill:#2D93BA;" d="M326.013,243.22v-4.877c-6.105-0.622-11.585-3.05-16.435-7.279l4.877-5.812  c3.74,3.251,7.589,5.186,11.558,5.812v-12.961c-5.034-1.201-8.72-2.783-11.058-4.743c-2.338-1.96-3.507-4.866-3.507-8.717  c0-3.852,1.343-7.002,4.039-9.454c2.697-2.449,6.203-3.784,10.525-4.007v-3.341h4.273v3.406c4.898,0.359,9.53,2.028,13.896,5.012  l-4.344,6.146c-2.941-2.093-6.122-3.384-9.552-3.876v12.558h0.201c5.121,1.204,8.883,2.83,11.286,4.877  c2.408,2.05,3.61,5.023,3.61,8.919c0,3.898-1.381,7.073-4.143,9.519c-2.762,2.452-6.41,3.787-10.955,4.009v4.809H326.013z   M321.299,200.1c-1.136,1-1.702,2.248-1.702,3.74s0.446,2.672,1.337,3.539c0.886,0.87,2.582,1.704,5.078,2.506v-11.558  C324.007,198.507,322.435,199.097,321.299,200.1z M335.363,229.392c1.245-1.022,1.87-2.313,1.87-3.874  c0-1.558-0.489-2.794-1.468-3.708c-0.984-0.913-2.811-1.77-5.48-2.571v12.023C332.422,231.042,334.113,230.417,335.363,229.392z" data-original="#2D93BA"/><path style="fill:#F6C358;" d="M226.777,297.326c17.553,15.724,43.176,17.884,58.224,17.589c7.217-0.141,13.405-5.107,15.216-12.094  l0,0c2.164-8.349-2.619-16.923-10.859-19.468l-68.143-21.044c-4.55-1.405-9.436-1.278-13.907,0.361l-42.32,15.517v85.848h98.446  c4.979,0,9.848-1.463,14.001-4.208l101.392-67.007c9.223-6.095,10.402-19.176,2.416-26.822l0,0  c-5.892-5.641-14.932-6.378-21.66-1.766l-60.412,41.415" data-original="#F6C358"/><defs>
	<filter id="Adobe_OpacityMaskFilter" filterUnits="userSpaceOnUse" x="223.006" y="295.73" width="78.52" height="22.827">
		<feColorMatrix type="matrix" values="1 0 0 0 0  0 1 0 0 0  0 0 1 0 0  0 0 0 1 0"/>
	</filter>
</defs><mask maskUnits="userSpaceOnUse" x="223.006" y="295.73" width="78.52" height="22.827" id="SVGID_1_">
</mask><g style="mask:url(#SVGID_1_);">
	<path style="fill:#FFFFFF;stroke:#DC8744;stroke-miterlimit:10;" d="M281.071,318.057c-14.879,0-39.967-2.617-57.359-18.201   l3.071-3.421c17.222,15.413,42.867,17.249,56.641,17.002c6.124-0.121,11.484-4.386,13.038-10.375l4.454,1.158   c-2.074,7.969-9.231,13.653-17.402,13.815C282.732,318.048,281.924,318.057,281.071,318.057z" data-original="#FFFFFFSTROKE:#DC8744;STROKE-MITERLIMIT:10;"/>
</g><path style="fill:#F6C358;" d="M226.777,297.326c17.553,15.724,43.176,17.884,58.224,17.589c7.217-0.141,13.405-5.107,15.216-12.094  l0,0c2.164-8.349-2.619-16.923-10.859-19.468l-68.143-21.044c-4.55-1.405-9.436-1.278-13.907,0.361l-42.32,15.517" data-original="#F6C358"/><rect x="104.96" y="261.32" style="fill:#44C4A1;" width="65.06" height="125.22" data-original="#44C4A1"/><circle style="fill:#EBF0F3;" cx="137.49" cy="362.91" r="11.228" data-original="#EBF0F3" class="active-path"/></g> </svg>
