<?xml version="1.0"?>
<svg xmlns="http://www.w3.org/2000/svg" xmlns:xlink="http://www.w3.org/1999/xlink" version="1.1" id="Capa_1" x="0px" y="0px" viewBox="0 0 491.52 491.52" style="enable-background:new 0 0 491.52 491.52;" xml:space="preserve" width="512px" height="512px" class=""><g><circle style="fill:#E05B49;" cx="245.76" cy="245.76" r="245.76" data-original="#E05B49"/><path style="opacity:0.1;enable-background:new    ;" d="M327.014,108.8l-0.051-0.051c-1.433-0.921-3.072-1.485-4.864-1.639  l-25.753-2.099c-2.407-0.205-4.864,0.103-7.168,0.921L226.1,127.538c-3.891,1.331-7.219,3.994-9.369,7.527l-28.007,46.08  c-1.024,1.741-1.792,3.635-2.202,5.632l-17.869,87.757l-12.749-7.322l-28.979,50.484l168.743,168.743  c103.484-21.348,183.174-107.753,194.458-214.568L330.445,112.23C329.574,110.797,328.397,109.619,327.014,108.8z" data-original="#000000"/><path style="fill:#DC8744;" d="M268.831,235.817l3.606-40.319c0.214-2.395-0.271-4.8-1.396-6.924l-4.458-8.416  c-2.377-4.488-7.247-7.078-12.297-6.541l-23.278,2.476l-10.777,7.462l10.954,24.461c6.49,1.74,10.422,8.323,8.877,14.862  l-3.289,13.914L268.831,235.817z" data-original="#DC8744"/><path style="fill:#F6C358;" d="M274.761,231.597l3.606-40.319c0.214-2.395-0.271-4.8-1.396-6.924l-4.458-8.416  c-2.377-4.488-7.247-7.078-12.297-6.541l-23.278,2.476l-10.777,7.462l10.954,24.461c6.49,1.74,10.422,8.323,8.877,14.863  l-3.289,13.914L274.761,231.597z" data-original="#F6C358" class=""/><path style="fill:#FCD462;" d="M322.908,128.37l-17.328,2.704c-1.554,0.242-3.068,0.691-4.503,1.334L253.55,153.69  c-5.399,2.418-9.232,7.374-10.215,13.207l-5.001,29.673c-0.78,4.627,0.31,9.374,3.031,13.197l5.663,7.959  c4.873,6.849,13.892,9.323,21.577,5.92l45.617-20.196c5.583-2.472,12.132-0.859,15.928,3.923l0,0  c4.431,5.582,3.721,13.654-1.616,18.377l-44.697,39.552c-1.947,1.723-3.479,3.84-4.513,6.226  c-5.808,13.404-28.281,60.795-59.854,71.363l-59.364-26.242l26.419-129.854c0.407-1.999,1.156-3.913,2.215-5.657l27.98-46.069  c2.149-3.539,5.472-6.212,9.389-7.553l63.074-21.604c2.297-0.787,4.731-1.092,7.151-0.898l25.78,2.073  c5.638,0.453,9.955,5.209,9.861,10.865l0,0C331.889,123.17,328.061,127.566,322.908,128.37z" data-original="#FCD462"/><rect x="132.246" y="297.8" transform="matrix(0.8669 0.4984 -0.4984 0.8669 189.7223 -56.8554)" style="fill:#44C4A1;" width="138.194" height="58.188" data-original="#44C4A1"/><ellipse style="fill:#FFFFFF;" cx="239.41" cy="348.78" rx="10.65" ry="10.65" data-original="#FFFFFF"/><circle style="fill:#27A2DB;" cx="326.52" cy="166.04" r="38.08" data-original="#27A2DB"/><circle style="fill:#2D93BA;" cx="326.39" cy="165.91" r="30.771" data-original="#2D93BA" class="active-path"/><path style="fill:#FFFFFF;" d="M325.014,191.974v-4.589c-5.746-0.588-10.903-2.87-15.467-6.856l4.589-5.469  c3.52,3.06,7.142,4.886,10.877,5.469v-12.195c-4.738-1.131-8.207-2.62-10.407-4.464c-2.2-1.844-3.3-4.579-3.3-8.204  s1.264-6.59,3.801-8.897c2.538-2.305,5.838-3.561,9.905-3.771v-3.144h4.021v3.205c4.61,0.338,8.969,1.908,13.077,4.717l-4.088,5.784  c-2.768-1.97-5.761-3.185-8.989-3.648v11.819h0.189c4.82,1.133,8.36,2.663,10.622,4.589c2.267,1.929,3.397,4.728,3.397,8.396  s-1.3,6.651-3.899,8.959c-2.599,2.302-6.032,3.561-10.309,3.771v4.528L325.014,191.974L325.014,191.974z M320.578,151.391  c-1.069,0.941-1.601,2.116-1.601,3.52s0.42,2.515,1.259,3.331c0.834,0.819,2.43,1.604,4.779,2.359v-10.877  C323.126,149.892,321.647,150.447,320.578,151.391z M333.814,178.958c1.172-0.962,1.76-2.18,1.76-3.648  c0-1.463-0.46-2.63-1.381-3.489c-0.926-0.854-2.645-1.663-5.157-2.417v11.315C331.046,180.508,332.637,179.925,333.814,178.958z" data-original="#FFFFFF"/></g> </svg>
