<?xml version="1.0" encoding="iso-8859-1"?>
<!-- Generator: Adobe Illustrator 19.0.0, SVG Export Plug-In . SVG Version: 6.00 Build 0)  -->
<svg version="1.1" id="Capa_1" xmlns="http://www.w3.org/2000/svg" xmlns:xlink="http://www.w3.org/1999/xlink" x="0px" y="0px"
	 viewBox="0 0 384 384" style="enable-background:new 0 0 384 384;" xml:space="preserve">
<circle style="fill:#334D5C;" cx="192" cy="192" r="192"/>
<path style="opacity:0.1;enable-background:new    ;" d="M381.504,222.83l-81.032-81.032l-0.004,0.004
	c-0.995-1.034-2.389-1.682-3.948-1.682h-10L236.4,90c-6-8.52-17.76-10.56-26.28-4.56c-8.52,6-10.56,17.76-4.56,26.32
	c1.214,1.709,2.68,3.119,4.287,4.287l24.073,24.073h-5.028l-51.945-51.945c-0.184-0.201-0.386-0.385-0.58-0.579l-0.949-0.949
	l-0.06,0.075c-0.492-0.429-0.934-0.897-1.479-1.281c-8.52-6-20.28-3.96-26.28,4.56c-3.92,5.56-4.36,12.48-1.88,18.28l-22.36,31.84
	H87.48c-3.04,0-5.48,2.44-5.48,5.48v40.88c0,1.458,0.584,2.779,1.527,3.756l-0.003,0.004l0.035,0.034
	c0.03,0.03,0.059,0.06,0.089,0.09l4.437,4.436l19.156,97.759c0.532,2.699,1.972,5.022,3.956,6.692l-0.003,0l84.65,84.65
	C289.651,382.055,366.948,312.974,381.504,222.83z"/>
<path style="fill:#FCD462;" d="M296.533,140.113H87.467c-3.02,0-5.467,2.449-5.467,5.47v40.887c0,3.021,2.447,5.47,5.467,5.47
	h209.066c3.019,0,5.467-2.449,5.467-5.47v-40.887C302,142.562,299.552,140.113,296.533,140.113z"/>
<path style="fill:#F6C358;" d="M87.51,191.94l19.716,100.622c1.075,5.483,5.877,9.438,11.462,9.438h146.625
	c5.585,0,10.388-3.955,14.043-23.189l17.178-86.871H87.51z"/>
<polygon style="fill:#DC8744;" points="296.49,191.94 88.013,191.94 291.132,218.706 "/>
<path style="fill:#F6C358;" d="M88.013,191.94H87.51l19.716,100.622c1.075,5.483,5.877,9.438,11.462,9.438h146.625
	c5.585,0,10.388-3.955,11.462-9.438l14.357-73.855L88.013,191.94z"/>
<g>
	<path style="fill:#FCD462;" d="M131.415,217.177L131.415,217.177c-2.908,0-5.264,2.358-5.264,5.267v53.799
		c0,2.909,2.356,5.267,5.264,5.267h0.001c2.907,0,5.264-2.358,5.264-5.267v-53.799C136.679,219.535,134.322,217.177,131.415,217.177
		z"/>
	<path style="fill:#FCD462;" d="M160.368,217.177L160.368,217.177c-2.908,0-5.264,2.358-5.264,5.267v53.799
		c0,2.909,2.356,5.267,5.264,5.267h0c2.907,0,5.264-2.358,5.264-5.267v-53.799C165.632,219.535,163.275,217.177,160.368,217.177z"/>
	<path style="fill:#FCD462;" d="M189.321,217.177L189.321,217.177c-2.908,0-5.264,2.358-5.264,5.267v53.799
		c0,2.909,2.356,5.267,5.264,5.267h0c2.907,0,5.264-2.358,5.264-5.267v-53.799C194.585,219.535,192.228,217.177,189.321,217.177z"/>
	<path style="fill:#FCD462;" d="M218.274,217.177L218.274,217.177c-2.908,0-5.264,2.358-5.264,5.267v53.799
		c0,2.909,2.356,5.267,5.264,5.267h0c2.907,0,5.264-2.358,5.264-5.267v-53.799C223.538,219.535,221.181,217.177,218.274,217.177z"/>
	<path style="fill:#FCD462;" d="M247.227,217.177L247.227,217.177c-2.908,0-5.264,2.358-5.264,5.267v53.799
		c0,2.909,2.356,5.267,5.264,5.267h0c2.908,0,5.264-2.358,5.264-5.267v-53.799C252.491,219.535,250.134,217.177,247.227,217.177z"/>
</g>
<ellipse style="fill:#D15241;" cx="221" cy="100.872" rx="18.872" ry="18.872"/>
<ellipse style="fill:#DC8744;" cx="266.317" cy="165.27" rx="15.348" ry="15.348"/>
<path style="fill:#EBF0F3;" d="M216.612,94.662c-4.452,3.136-5.52,9.29-2.385,13.745l43.327,61.564
	c3.135,4.455,9.285,5.523,13.738,2.386c4.452-3.137,5.52-9.291,2.385-13.746L230.35,97.048
	C227.215,92.594,221.064,91.525,216.612,94.662z"/>
<ellipse style="fill:#D15241;" cx="163.015" cy="100.879" rx="18.868" ry="18.868"/>
<ellipse style="fill:#DC8744;" cx="117.683" cy="165.29" rx="15.344" ry="15.344"/>
<path style="fill:#EBF0F3;" d="M167.387,94.662c4.452,3.136,5.52,9.29,2.385,13.745l-43.327,61.564
	c-3.135,4.455-9.285,5.523-13.738,2.386c-4.452-3.137-5.52-9.291-2.385-13.746l43.327-61.564
	C156.784,92.594,162.935,91.525,167.387,94.662z"/>
<g>
</g>
<g>
</g>
<g>
</g>
<g>
</g>
<g>
</g>
<g>
</g>
<g>
</g>
<g>
</g>
<g>
</g>
<g>
</g>
<g>
</g>
<g>
</g>
<g>
</g>
<g>
</g>
<g>
</g>
</svg>
