<?xml version="1.0" encoding="iso-8859-1"?>
<!-- Generator: Adobe Illustrator 19.0.0, SVG Export Plug-In . SVG Version: 6.00 Build 0)  -->
<svg version="1.1" id="Layer_1" xmlns="http://www.w3.org/2000/svg" xmlns:xlink="http://www.w3.org/1999/xlink" x="0px" y="0px"
	 viewBox="0 0 512 512" style="enable-background:new 0 0 512 512;" xml:space="preserve">
<circle style="fill:#E05B49;" cx="256" cy="256" r="256"/>
<path style="opacity:0.1;enable-background:new    ;" d="M357.973,116.106v34.507c-27.253-26.347-63.68-41.28-101.973-41.28
	c-80.853,0-146.667,65.814-146.667,146.667l86.559,86.559h-52.533v53.333L259.38,511.914
	c138.689-1.803,250.73-113.845,252.533-252.533L368.64,116.106H357.973z"/>
<circle style="fill:#FCD462;" cx="256" cy="256" r="90.156"/>
<circle style="fill:#F6C358;" cx="256" cy="256" r="75.094"/>
<path style="fill:#DC8744;" d="M252.901,314.454v-10.295c-12.889-1.315-24.456-6.439-34.694-15.367l10.295-12.269
	c7.896,6.863,16.021,10.949,24.399,12.269v-27.36c-10.627-2.536-18.408-5.876-23.344-10.014c-4.935-4.137-7.402-10.272-7.402-18.403
	c0-8.131,2.834-14.782,8.527-19.957c5.693-5.17,13.095-7.988,22.219-8.458v-7.052h9.021v7.19
	c10.341,0.757,20.119,4.281,29.334,10.581l-9.17,12.974c-6.208-4.419-12.923-7.144-20.165-8.182v26.51h0.425
	c10.81,2.542,18.753,5.974,23.825,10.295c5.084,4.327,7.621,10.604,7.621,18.827c0,8.229-2.915,14.931-8.745,20.096
	c-5.83,5.176-13.531,7.994-23.125,8.464v10.151h-9.022V314.454z M242.951,223.427c-2.399,2.111-3.592,4.746-3.592,7.896
	c0,3.15,0.941,5.641,2.823,7.471c1.871,1.836,5.451,3.598,10.719,5.291v-24.399C248.667,220.065,245.35,221.31,242.951,223.427z
	 M272.641,285.264c2.628-2.157,3.948-4.883,3.948-8.177c0-3.288-1.033-5.899-3.099-7.827c-2.077-1.928-5.933-3.735-11.569-5.428
	v25.38C266.432,288.747,270.001,287.427,272.641,285.264z"/>
<path style="fill:#44C4A1;" d="M256,120c35.714,0,69.7,14.021,95.025,38.768h-35.754v10.667h53.349v-53.351h-10.667v34.541
	c-27.248-26.37-63.682-41.291-101.953-41.291c-80.87,0-146.667,65.794-146.667,146.667H120C120,181.01,181.01,120,256,120z"/>
<path style="fill:#27A2DB;" d="M392,256c0,74.99-61.01,136-136,136c-35.711,0-69.699-14.02-95.024-38.766h35.753v-10.667H143.38
	v53.349h10.667v-34.54c27.249,26.368,63.689,41.29,101.953,41.29c80.87,0,146.667-65.795,146.667-146.667L392,256L392,256z"/>
<g>
</g>
<g>
</g>
<g>
</g>
<g>
</g>
<g>
</g>
<g>
</g>
<g>
</g>
<g>
</g>
<g>
</g>
<g>
</g>
<g>
</g>
<g>
</g>
<g>
</g>
<g>
</g>
<g>
</g>
</svg>
