<?xml version="1.0" encoding="iso-8859-1"?>
<!-- Generator: Adobe Illustrator 19.0.0, SVG Export Plug-In . SVG Version: 6.00 Build 0)  -->
<svg version="1.1" id="Capa_1" xmlns="http://www.w3.org/2000/svg" xmlns:xlink="http://www.w3.org/1999/xlink" x="0px" y="0px"
	 viewBox="0 0 384 384" style="enable-background:new 0 0 384 384;" xml:space="preserve">
<circle style="fill:#E05B49;" cx="192" cy="192" r="192"/>
<path style="opacity:0.1;enable-background:new    ;" d="M250.48,152.91c-11.76,0-21.8,1.88-29.8,4.32l-44.72-44.72H129.8L82,268.91
	l114.965,114.965c82.822-2.108,152.573-56.625,177.346-131.654L289.76,167.67C282.08,158.59,269.6,152.91,250.48,152.91z"/>
<g>
	<path style="fill:#F6C358;" d="M240.856,177.405l-20.16-20.159c-6.02,1.839-10.902,3.973-14.299,5.87l6.5,22.503
		C219.608,181.632,230.297,178.062,240.856,177.405z"/>
	<path style="fill:#F6C358;" d="M300.148,241.545v-4.846l-43.215-43.214c-35.652,1.762-58.66,15.704-58.66,43.186
		c0,18.1,13.697,34.802,36.672,34.802c13.453,0,25.055-4.874,32.479-13.924h0.699l2.078,11.374H302
		C300.602,262.658,300.148,252.22,300.148,241.545z M266.025,227.62c0,2.088-0.226,4.175-0.697,6.027
		c-2.306,7.199-9.73,12.999-18.328,12.999c-7.879,0-13.926-4.412-13.926-13.462c0-13.452,14.398-17.864,32.951-17.864V227.62z"/>
</g>
<path style="fill:#FCD462;" d="M300.148,201.858c0-26.678-11.846-48.954-49.672-48.954c-11.769,0-21.802,1.904-29.781,4.342
	l20.16,20.159c1.125-0.07,2.25-0.137,3.367-0.137c17.4,0,20.65,8.587,20.65,14.614v1.398c-2.715,0-5.354,0.076-7.94,0.204
	l43.215,43.214V201.858z"/>
<path style="fill:#44C4A1;" d="M129.556,228.782l-10.902,40.14H82l47.802-156.394h46.176l48.727,156.394h-38.052l-12.073-40.14
	H129.556z M169.252,202.33l-9.75-33.187c-2.55-9.277-5.347-21.114-7.671-30.164h-0.68c-2.097,9.286-4.648,21.114-6.972,30.164
	l-9.504,33.187H169.252z"/>
<g>
</g>
<g>
</g>
<g>
</g>
<g>
</g>
<g>
</g>
<g>
</g>
<g>
</g>
<g>
</g>
<g>
</g>
<g>
</g>
<g>
</g>
<g>
</g>
<g>
</g>
<g>
</g>
<g>
</g>
</svg>
