<?xml version="1.0" encoding="iso-8859-1"?>
<!-- Generator: Adobe Illustrator 19.0.0, SVG Export Plug-In . SVG Version: 6.00 Build 0)  -->
<svg version="1.1" id="Capa_1" xmlns="http://www.w3.org/2000/svg" xmlns:xlink="http://www.w3.org/1999/xlink" x="0px" y="0px"
	 viewBox="0 0 384 384" style="enable-background:new 0 0 384 384;" xml:space="preserve">
<circle style="fill:#EFC84A;" cx="192" cy="192" r="192"/>
<path style="opacity:0.1;enable-background:new    ;" d="M277.018,108.544c-1.609-1.645-3.848-2.674-6.338-2.674h-27.478
	l-21.151-21.15c-1.595-1.674-3.834-2.73-6.331-2.73h-47.44c-4.84,0-8.76,3.92-8.76,8.76v15.12h-46.2c-4.92,0-8.88,4-8.88,8.88v16.08
	l7.394,7.394L125.16,293.75c0.184,2.376,1.3,4.469,2.959,5.956l83.318,83.318c89.6-9.009,160.983-79.63,171.249-168.852
	L277.042,108.527L277.018,108.544z"/>
<path style="fill:#EBF0F3;" d="M111.22,130.81l13.96,162.955c0.34,4.642,4.205,8.236,8.86,8.236h115.922
	c4.655,0,8.52-3.593,8.86-8.236l13.96-162.955H111.22z"/>
<path style="fill:#3A556A;" d="M224.483,114.145h-64.966v-23.39c0-4.827,3.928-8.755,8.755-8.755h47.456
	c4.827,0,8.755,3.928,8.755,8.755V114.145z M166.521,107.141h50.958V90.755c0-0.966-0.785-1.751-1.751-1.751h-47.456
	c-0.966,0-1.751,0.785-1.751,1.751V107.141z"/>
<path style="fill:#64798A;" d="M270.674,105.875H113.326c-4.906,0-8.884,3.977-8.884,8.884v16.051h175.114v-16.051
	C279.557,109.852,275.58,105.875,270.674,105.875z"/>
<g>
	<polygon style="fill:#E1E6E9;" points="272.78,130.81 111.22,130.81 111.22,130.81 270.99,151.712 	"/>
	<path style="fill:#E1E6E9;" d="M147.128,152.975c-1.599,0-2.895,1.296-2.895,2.895v124.935c0,1.598,1.296,2.894,2.895,2.894l0,0
		V152.975L147.128,152.975z"/>
</g>
<path style="fill:#D5D6DB;" d="M147.128,152.975V283.7c1.599,0,2.895-1.296,2.895-2.894V155.87
	C150.023,154.272,148.727,152.976,147.128,152.975z"/>
<path style="fill:#E1E6E9;" d="M169.564,152.975c-1.599,0-2.895,1.296-2.895,2.895v124.935c0,1.598,1.296,2.894,2.895,2.894l0,0
	V152.975L169.564,152.975z"/>
<path style="fill:#D5D6DB;" d="M169.564,152.975V283.7c1.599,0,2.895-1.296,2.895-2.894V155.87
	C172.459,154.272,171.163,152.976,169.564,152.975z"/>
<path style="fill:#E1E6E9;" d="M192,152.975c-1.598,0-2.894,1.296-2.894,2.895v124.935c0,1.598,1.296,2.894,2.894,2.894l0,0V152.975
	L192,152.975z"/>
<path style="fill:#D5D6DB;" d="M192,152.975V283.7c1.599,0,2.895-1.296,2.895-2.894V155.87
	C194.895,154.272,193.598,152.976,192,152.975z"/>
<path style="fill:#E1E6E9;" d="M214.436,152.975c-1.599,0-2.894,1.296-2.894,2.895v124.935c0,1.598,1.296,2.894,2.894,2.894l0,0
	V152.975L214.436,152.975z"/>
<path style="fill:#D5D6DB;" d="M214.436,152.975V283.7c1.599,0,2.895-1.296,2.895-2.894V155.87
	C217.331,154.272,216.034,152.976,214.436,152.975z"/>
<path style="fill:#E1E6E9;" d="M236.872,152.975c-1.599,0-2.894,1.296-2.894,2.895v124.935c0,1.598,1.296,2.894,2.894,2.894l0,0
	V152.975L236.872,152.975z"/>
<path style="fill:#D5D6DB;" d="M236.872,152.975V283.7c1.599,0,2.895-1.296,2.895-2.894V155.87
	C239.767,154.272,238.47,152.976,236.872,152.975z"/>
<g>
</g>
<g>
</g>
<g>
</g>
<g>
</g>
<g>
</g>
<g>
</g>
<g>
</g>
<g>
</g>
<g>
</g>
<g>
</g>
<g>
</g>
<g>
</g>
<g>
</g>
<g>
</g>
<g>
</g>
</svg>
