<?xml version="1.0" encoding="iso-8859-1"?>
<!-- Generator: Adobe Illustrator 19.0.0, SVG Export Plug-In . SVG Version: 6.00 Build 0)  -->
<svg version="1.1" id="Capa_1" xmlns="http://www.w3.org/2000/svg" xmlns:xlink="http://www.w3.org/1999/xlink" x="0px" y="0px"
	 viewBox="0 0 491.52 491.52" style="enable-background:new 0 0 491.52 491.52;" xml:space="preserve">
<circle style="fill:#EFC84A;" cx="245.76" cy="245.76" r="245.76"/>
<path style="fill:#E56353;" d="M104.96,245.76c0,77.762,63.039,140.8,140.8,140.8v-281.6
	C167.999,104.96,104.96,167.998,104.96,245.76z"/>
<path style="fill:#D15241;" d="M245.76,104.96v281.6c77.761,0,140.8-63.038,140.8-140.8
	C386.56,167.998,323.521,104.96,245.76,104.96z"/>
<polygon style="fill:#CE412D;" points="286.842,171.947 245.76,213.029 204.679,171.947 166.827,209.799 207.909,250.881 
	166.827,291.963 204.678,329.813 245.759,288.731 286.841,329.813 324.693,291.962 283.611,250.88 324.693,209.798 "/>
<polygon style="fill:#FFFFFF;" points="286.842,161.707 245.76,202.789 204.679,161.707 166.827,199.559 207.909,240.641 
	166.827,281.723 204.678,319.573 245.759,278.491 286.841,319.573 324.693,281.722 283.611,240.64 324.693,199.558 "/>
<g>
</g>
<g>
</g>
<g>
</g>
<g>
</g>
<g>
</g>
<g>
</g>
<g>
</g>
<g>
</g>
<g>
</g>
<g>
</g>
<g>
</g>
<g>
</g>
<g>
</g>
<g>
</g>
<g>
</g>
</svg>
