<?xml version="1.0" encoding="iso-8859-1"?>
<!-- Generator: Adobe Illustrator 19.0.0, SVG Export Plug-In . SVG Version: 6.00 Build 0)  -->
<svg version="1.1" id="Capa_1" xmlns="http://www.w3.org/2000/svg" xmlns:xlink="http://www.w3.org/1999/xlink" x="0px" y="0px"
	 viewBox="0 0 384 384" style="enable-background:new 0 0 384 384;" xml:space="preserve">
<circle style="fill:#334D5C;" cx="192" cy="192" r="192"/>
<path style="opacity:0.1;enable-background:new    ;" d="M300.12,102.557l-0.08-0.08c-0.92-0.8-2.16-1.279-3.48-1.279H87.44
	c-3,0-5.44,2.439-5.44,5.439v134.561c0,1.68,0.76,3.16,1.96,4.16l136.556,136.522C313.029,368.103,384,288.347,384,192
	c0-1.914-0.089-3.806-0.145-5.707l-83.215-83.216L300.12,102.557z"/>
<path style="fill:#FFFFFF;" d="M296.566,101.193H87.434c-3.001,0-5.434,2.434-5.434,5.435v134.565c0,3.001,2.434,5.435,5.434,5.435
	h209.131c3.002,0,5.434-2.434,5.434-5.435V106.628C302,103.626,299.567,101.193,296.566,101.193z"/>
<rect x="90" y="109.2" style="fill:#27A2DB;" width="204" height="129.432"/>
<rect x="90" y="233.76" style="fill:#2D93BA;" width="204" height="4.884"/>
<rect x="153.88" y="246.64" style="fill:#EBF0F3;" width="76.24" height="23.42"/>
<g>
	<path style="fill:#FFFFFF;" d="M240.923,270.048h-97.846c-1.38,0-2.498,1.119-2.498,2.498v10.26h102.842v-10.26
		C243.421,271.167,242.303,270.048,240.923,270.048z"/>
	<path style="fill:#FFFFFF;" d="M130.27,199.886v-4.575c-5.728-0.584-10.868-2.861-15.418-6.829l4.575-5.452
		c3.509,3.05,7.12,4.866,10.843,5.452v-12.159c-4.723-1.127-8.181-2.611-10.374-4.45c-2.193-1.839-3.29-4.565-3.29-8.178
		c0-3.614,1.26-6.569,3.79-8.869c2.53-2.298,5.819-3.55,9.874-3.759v-3.134h4.008v3.195c4.595,0.336,8.941,1.902,13.036,4.702
		l-4.075,5.766c-2.759-1.964-5.743-3.175-8.961-3.636v11.781h0.189c4.804,1.13,8.334,2.655,10.588,4.575
		c2.259,1.923,3.386,4.712,3.386,8.367c0,3.657-1.296,6.635-3.886,8.93c-2.591,2.3-6.013,3.552-10.277,3.761v4.511H130.27z
		 M125.848,159.434c-1.066,0.938-1.596,2.109-1.596,3.509c0,1.4,0.418,2.507,1.255,3.32c0.831,0.816,2.422,1.599,4.764,2.351
		v-10.843C128.388,157.94,126.914,158.493,125.848,159.434z M139.042,186.914c1.168-0.959,1.754-2.17,1.754-3.634
		c0-1.461-0.459-2.622-1.377-3.478c-0.923-0.857-2.637-1.66-5.141-2.412v11.279C136.283,188.462,137.87,187.875,139.042,186.914z"/>
	<path style="fill:#FFFFFF;" d="M222.262,150.152h-53.273c-1.238,0-2.244,1.005-2.244,2.244v5.854c0,1.24,1.006,2.244,2.244,2.244
		h53.273c1.24,0,2.244-1.004,2.244-2.244v-5.854C224.506,151.157,223.502,150.152,222.262,150.152z"/>
	<path style="fill:#FFFFFF;" d="M222.262,167.52h-53.273c-1.238,0-2.244,1.005-2.244,2.244v5.854c0,1.24,1.006,2.244,2.244,2.244
		h53.273c1.24,0,2.244-1.005,2.244-2.244v-5.854C224.506,168.524,223.502,167.52,222.262,167.52z"/>
	<path style="fill:#FFFFFF;" d="M222.75,184.887h-20.881c-0.969,0-1.756,0.786-1.756,1.756v6.83c0,0.97,0.787,1.756,1.756,1.756
		h20.881c0.969,0,1.756-0.786,1.756-1.756v-6.83C224.506,185.673,223.719,184.887,222.75,184.887z"/>
</g>
<g>
	<path style="fill:#D5D6DB;" d="M170.98,156.483c0.195,0.226,0.461,0.34,0.793,0.34c0.336,0,0.598-0.113,0.793-0.34
		c0.195-0.227,0.293-0.535,0.293-0.926v-2.359h0.719v2.39c0,0.614-0.168,1.086-0.504,1.414c-0.34,0.332-0.77,0.5-1.301,0.5
		c-0.527,0-0.961-0.168-1.297-0.5c-0.336-0.328-0.508-0.801-0.508-1.414v-2.39h0.723v2.359
		C170.69,155.948,170.784,156.256,170.98,156.483z"/>
	<path style="fill:#D5D6DB;" d="M175.995,153.756c-0.207,0-0.379,0.043-0.512,0.129c-0.136,0.086-0.203,0.215-0.203,0.386
		c0,0.176,0.066,0.305,0.203,0.398c0.133,0.09,0.418,0.188,0.856,0.293c0.438,0.106,0.766,0.254,0.988,0.445
		c0.219,0.192,0.332,0.473,0.332,0.848c0,0.371-0.141,0.672-0.422,0.902c-0.281,0.234-0.648,0.348-1.102,0.348
		c-0.668,0-1.258-0.23-1.777-0.687l0.453-0.543c0.43,0.375,0.879,0.562,1.34,0.562c0.234,0,0.418-0.051,0.555-0.152
		c0.133-0.098,0.203-0.231,0.203-0.395s-0.066-0.293-0.192-0.383c-0.129-0.094-0.352-0.176-0.664-0.25
		c-0.312-0.078-0.551-0.144-0.711-0.207c-0.164-0.066-0.309-0.148-0.434-0.25c-0.254-0.192-0.379-0.484-0.379-0.875
		c0-0.394,0.144-0.699,0.43-0.914c0.289-0.211,0.64-0.32,1.062-0.32c0.274,0,0.543,0.047,0.812,0.137
		c0.27,0.09,0.5,0.215,0.696,0.375l-0.383,0.543c-0.129-0.113-0.297-0.207-0.512-0.281
		C176.417,153.795,176.206,153.756,175.995,153.756z"/>
	<path style="fill:#D5D6DB;" d="M181.542,153.198v0.676h-2.274v1.129h2.039v0.64h-2.039v1.141h2.344v0.676h-3.066v-4.262H181.542z"
		/>
	<path style="fill:#D5D6DB;" d="M185.932,154.58c0,0.703-0.304,1.148-0.918,1.328l1.113,1.551h-0.914l-1.02-1.434h-0.942v1.434
		h-0.722v-4.262h1.586c0.652,0,1.117,0.109,1.399,0.328C185.792,153.744,185.932,154.096,185.932,154.58z M184.976,155.186
		c0.148-0.129,0.219-0.328,0.219-0.61c0-0.277-0.074-0.469-0.223-0.57c-0.152-0.105-0.422-0.156-0.805-0.156h-0.914v1.523h0.895
		C184.554,155.373,184.831,155.311,184.976,155.186z"/>
	<path style="fill:#D5D6DB;" d="M202.87,191.885v-4.262h0.723v3.578h1.941v0.684H202.87z"/>
	<path style="fill:#D5D6DB;" d="M209.765,191.297c-0.43,0.42-0.961,0.631-1.598,0.631c-0.633,0-1.164-0.211-1.594-0.631
		c-0.434-0.422-0.648-0.945-0.648-1.574c0-0.627,0.215-1.15,0.648-1.572c0.43-0.42,0.961-0.631,1.594-0.631
		c0.637,0,1.168,0.211,1.598,0.631c0.434,0.422,0.648,0.945,0.648,1.572C210.413,190.352,210.198,190.875,209.765,191.297z
		 M209.237,188.629c-0.289-0.301-0.644-0.451-1.07-0.451c-0.422,0-0.777,0.15-1.066,0.451c-0.293,0.301-0.437,0.666-0.437,1.094
		c0,0.43,0.144,0.795,0.437,1.096c0.289,0.301,0.645,0.451,1.066,0.451c0.426,0,0.782-0.15,1.07-0.451
		c0.293-0.301,0.438-0.666,0.438-1.096C209.675,189.295,209.53,188.93,209.237,188.629z"/>
	<path style="fill:#D5D6DB;" d="M214.272,189.813h0.719v1.457c-0.402,0.444-0.976,0.664-1.726,0.664
		c-0.629,0-1.156-0.207-1.582-0.621c-0.422-0.416-0.636-0.94-0.636-1.574c0-0.633,0.219-1.162,0.648-1.584
		c0.434-0.424,0.957-0.635,1.57-0.635c0.613,0,1.125,0.18,1.531,0.537l-0.383,0.549c-0.168-0.142-0.336-0.242-0.504-0.297
		c-0.168-0.055-0.363-0.082-0.59-0.082c-0.43,0-0.793,0.139-1.086,0.418c-0.289,0.279-0.437,0.644-0.437,1.098
		s0.144,0.816,0.426,1.092c0.285,0.273,0.629,0.41,1.035,0.41c0.402,0,0.742-0.086,1.016-0.262V189.813z"/>
	<path style="fill:#D5D6DB;" d="M215.936,187.623h0.723v4.262h-0.723V187.623z"/>
	<path style="fill:#D5D6DB;" d="M221.03,187.623h0.719v4.262h-0.778l-2.414-3.11v3.11h-0.723v-4.262h0.723l2.473,3.184V187.623z"/>
	<path style="fill:#D5D6DB;" d="M172.901,171.127c0.297,0.248,0.446,0.629,0.446,1.144c0,0.518-0.152,0.895-0.453,1.135
		c-0.305,0.24-0.77,0.36-1.394,0.36h-0.754v1.25h-0.723v-4.262h1.465C172.132,170.754,172.604,170.879,172.901,171.127z
		 M172.394,172.885c0.144-0.152,0.215-0.375,0.215-0.67c0-0.295-0.09-0.504-0.274-0.625c-0.184-0.123-0.469-0.184-0.859-0.184h-0.73
		v1.707h0.832C171.976,173.114,172.249,173.037,172.394,172.885z"/>
	<path style="fill:#D5D6DB;" d="M174.566,174.047l-0.426,0.969h-0.77l1.879-4.262h0.766l1.879,4.262h-0.77l-0.426-0.969H174.566z
		 M176.405,173.381l-0.773-1.754l-0.774,1.754H176.405z"/>
	<path style="fill:#D5D6DB;" d="M179.772,171.315c-0.207,0-0.379,0.043-0.512,0.129c-0.137,0.086-0.203,0.215-0.203,0.387
		c0,0.174,0.066,0.305,0.203,0.396c0.133,0.092,0.418,0.19,0.855,0.295c0.438,0.106,0.766,0.254,0.988,0.446
		c0.219,0.191,0.332,0.472,0.332,0.846c0,0.371-0.14,0.672-0.422,0.904c-0.282,0.232-0.649,0.348-1.102,0.348
		c-0.668,0-1.258-0.23-1.778-0.69l0.453-0.543c0.43,0.375,0.879,0.562,1.34,0.562c0.234,0,0.418-0.051,0.554-0.15
		c0.133-0.1,0.203-0.23,0.203-0.396c0-0.164-0.066-0.293-0.191-0.383c-0.129-0.092-0.352-0.176-0.664-0.25
		c-0.313-0.076-0.551-0.145-0.711-0.207c-0.164-0.064-0.308-0.146-0.434-0.248c-0.254-0.191-0.379-0.484-0.379-0.877
		c0-0.395,0.144-0.699,0.43-0.912c0.289-0.213,0.641-0.32,1.062-0.32c0.274,0,0.543,0.045,0.813,0.135
		c0.27,0.09,0.5,0.215,0.695,0.377l-0.383,0.543c-0.129-0.113-0.297-0.207-0.512-0.281
		C180.194,171.352,179.983,171.315,179.772,171.315z"/>
	<path style="fill:#D5D6DB;" d="M183.612,171.315c-0.207,0-0.379,0.043-0.512,0.129c-0.136,0.086-0.203,0.215-0.203,0.387
		c0,0.174,0.066,0.305,0.203,0.396c0.133,0.092,0.418,0.19,0.856,0.295c0.438,0.106,0.766,0.254,0.988,0.446
		c0.219,0.191,0.332,0.472,0.332,0.846c0,0.371-0.141,0.672-0.422,0.904c-0.281,0.232-0.648,0.348-1.102,0.348
		c-0.668,0-1.258-0.23-1.777-0.69l0.453-0.543c0.43,0.375,0.879,0.562,1.34,0.562c0.234,0,0.418-0.051,0.555-0.15
		c0.133-0.1,0.203-0.23,0.203-0.396c0-0.164-0.066-0.293-0.192-0.383c-0.129-0.092-0.352-0.176-0.664-0.25
		c-0.312-0.076-0.551-0.145-0.711-0.207c-0.164-0.064-0.309-0.146-0.434-0.248c-0.254-0.191-0.379-0.484-0.379-0.877
		c0-0.395,0.144-0.699,0.43-0.912c0.289-0.213,0.64-0.32,1.062-0.32c0.274,0,0.543,0.045,0.812,0.135
		c0.27,0.09,0.5,0.215,0.696,0.377l-0.383,0.543c-0.129-0.113-0.297-0.207-0.512-0.281
		C184.034,171.352,183.823,171.315,183.612,171.315z"/>
	<path style="fill:#D5D6DB;" d="M187.499,173.82l0.949-3.066h0.648l0.949,3.066l1.074-3.066h0.774l-1.488,4.262h-0.715l-0.894-2.92
		h-0.047l-0.899,2.92h-0.711l-1.488-4.262h0.774L187.499,173.82z"/>
	<path style="fill:#D5D6DB;" d="M196.077,174.428c-0.43,0.42-0.961,0.631-1.598,0.631c-0.633,0-1.164-0.211-1.594-0.631
		c-0.434-0.422-0.648-0.945-0.648-1.574c0-0.627,0.215-1.15,0.648-1.572c0.43-0.42,0.961-0.631,1.594-0.631
		c0.636,0,1.168,0.211,1.598,0.631c0.434,0.422,0.648,0.945,0.648,1.572C196.726,173.483,196.511,174.006,196.077,174.428z
		 M195.55,171.76c-0.289-0.301-0.644-0.451-1.07-0.451c-0.422,0-0.778,0.15-1.066,0.451c-0.293,0.301-0.438,0.666-0.438,1.094
		c0,0.43,0.144,0.795,0.438,1.096c0.289,0.301,0.644,0.451,1.066,0.451c0.426,0,0.781-0.15,1.07-0.451
		c0.293-0.301,0.438-0.666,0.438-1.096C195.987,172.426,195.843,172.061,195.55,171.76z"/>
	<path style="fill:#D5D6DB;" d="M201.034,172.139c0,0.703-0.304,1.147-0.918,1.328l1.114,1.549h-0.914l-1.02-1.434h-0.942v1.434
		h-0.722v-4.262h1.586c0.652,0,1.117,0.11,1.398,0.33C200.894,171.303,201.034,171.654,201.034,172.139z M200.077,172.742
		c0.148-0.127,0.219-0.328,0.219-0.607c0-0.278-0.074-0.469-0.223-0.572c-0.152-0.104-0.422-0.156-0.805-0.156h-0.914v1.524h0.895
		C199.655,172.93,199.932,172.868,200.077,172.742z"/>
	<path style="fill:#D5D6DB;" d="M205.296,171.313c0.41,0.371,0.617,0.889,0.617,1.551s-0.199,1.188-0.598,1.572
		c-0.399,0.386-1.008,0.58-1.832,0.58h-1.414v-4.262h1.465C204.3,170.754,204.886,170.94,205.296,171.313z M205.186,172.883
		c0-0.977-0.558-1.465-1.676-1.465h-0.719v2.922h0.797c0.516,0,0.91-0.123,1.188-0.369
		C205.05,173.725,205.186,173.362,205.186,172.883z"/>
</g>
<g>
</g>
<g>
</g>
<g>
</g>
<g>
</g>
<g>
</g>
<g>
</g>
<g>
</g>
<g>
</g>
<g>
</g>
<g>
</g>
<g>
</g>
<g>
</g>
<g>
</g>
<g>
</g>
<g>
</g>
</svg>
