<?xml version="1.0"?>
<svg xmlns="http://www.w3.org/2000/svg" enable-background="new 0 0 140 140" height="512px" viewBox="0 0 140 140" width="512px"><g transform="matrix(1.09358 0 0 1.09358 -6.55031 -6.55031)"><circle cx="70" cy="70" fill="#4abaa4" r="64" data-original="#4ABAA4"/><path d="m92.7299805 33.6899414v.2299805l39.4299316 39.4301758 1.6401367 1.4897461c-2.4799804 33.0800781-30.0800781 59.1601562-63.8000488 59.1601562-3.2900391 0-6.5200195-.25-9.6799316-.7299805l-26.9001465-26.9101562c-1.5299072-1.4897461-2.4899902-3.5598145-2.4899902-5.869873v-66.8000489l2.5700683-2.3398437 2.5800781 2.3398438 2.5699463-2.3398438 2.5799561 2.3398438 2.5700684-2.3398438 2.5799561 2.3398438 2.5699463-2.3398438 2.5800781 2.3398438 2.5699463-2.3398438 2.5799561 2.3398438 2.5700682-2.3398438 2.5800781 2.3398438 2.5699463-2.3398438 2.5799561 2.3398438 2.5700684-2.3398438 2.5799561 2.3398438 2.5799561-2.3398438 2.5700684 2.3398438 2.5799561-2.3398438 2.5699463 2.3398438 2.5800781-2.3398438 2.5700684 2.3398438 2.579834-2.3398438z" opacity=".1" data-original="#000000"/><path d="m92.6328201 63.9363098v36.5569992c0 4.5109863 3.6567993 8.1679688 8.1677246 8.1679688 4.5108643 0 8.1676636-3.6569824 8.1676636-8.1679688v-36.5569992z" fill="#dad7dc" data-original="#DAD7DC"/><path d="m92.732811 100.4934006v-10.8100586l-.0010376-55.9897461-2.5700073-2.340086-2.5800171 2.340086-2.5699463-2.340086-2.5800171 2.340086-2.5700073-2.340086-2.5800171 2.340086-2.5700073-2.340086-2.5799561 2.340086-2.5800171-2.340086-2.5700073 2.340086-2.5800171-2.340086-2.5700035 2.340086-2.5799561-2.340086-2.5700073 2.340086-2.5800171-2.340086-2.5700073 2.340086-2.5799561-2.340086-2.5700073 2.340086-2.5800171-2.340086-2.5700073 2.340086-2.5800171-2.340086-2.5700073 2.340086-2.5799561-2.340086-2.5700092 2.340086v66.8000488c0 4.512207 3.6578388 8.1699219 8.1700459 8.1699219h59.339962l2.4539795-.0026855c-4.5087281-.0026856-8.1629639-3.6582032-8.1629639-8.1674805z" fill="#e6e7e8" data-original="#E6E7E8"/><path d="m33.93198 39.672016h55.799988v14.844238h-55.799988z" fill="#509fd7" data-original="#509FD7"/><g fill="#b0b1b5"><path d="m57.460217 76.950386h32.271877v1.616762h-32.271877z" data-original="#B0B1B5"/><path d="m57.460217 73.181229h32.271877v1.616762h-32.271877z" data-original="#B0B1B5"/><path d="m57.460217 69.412064h32.271877v1.616762h-32.271877z" data-original="#B0B1B5"/><path d="m57.460217 65.642899h32.271877v1.616762h-32.271877z" data-original="#B0B1B5"/><path d="m57.460217 61.873737h32.271877v1.616762h-32.271877z" data-original="#B0B1B5"/><path d="m48.115223 95.796204h27.433626v1.616762h-27.433626z" data-original="#B0B1B5"/><path d="m33.93198 92.027039h55.80011v1.616762h-55.80011z" data-original="#B0B1B5"/><path d="m48.115223 99.565369h27.433626v1.616762h-27.433626z" data-original="#B0B1B5"/><path d="m33.93198 88.257874h55.80011v1.616762h-55.80011z" data-original="#B0B1B5"/><path d="m33.93198 84.488716h55.80011v1.616762h-55.80011z" data-original="#B0B1B5"/><path d="m33.93198 80.719551h55.80011v1.616762h-55.80011z" data-original="#B0B1B5"/></g><path d="m32.886421 58.562008h21.050701v18.959581h-21.050701z" fill="#d49145" transform="matrix(0 1 -1 0 111.454 24.63)" data-original="#D49145"/><path d="m43.4119606 60.020649c-4.4228516 0-8.0214844 3.5981445-8.0214844 8.0209999s3.5986328 8.0214844 8.0214844 8.0214844 8.0209961-3.5986328 8.0209961-8.0214844-3.5981445-8.0209999-8.0209961-8.0209999zm6.9956665 7.5209999h-2.8394165c-.0377808-1.2297363-.2091675-2.3786621-.4941406-3.3879395.5032349-.2600136.9760132-.5793495 1.4172363-.9455605 1.0916748 1.1464882 1.7974854 2.6586953 1.9163208 4.3335zm-6.4956665-6.416996c.7247314.2817383 1.4291992 1.1574707 1.9330444 2.4775391-.6160278.2280273-1.2653809.3686523-1.9330444.4160194zm1.902771.3286132c.7034302.2573242 1.3545532.6210938 1.9326172 1.0766602-.3146362.2507324-.6495972.4692383-.9994507.6599121-.2614746-.670166-.5749512-1.2575683-.9331665-1.7365723zm-2.902771-.3286132v2.8938026c-.6690063-.0466347-1.3189087-.1862831-1.9344482-.4140663.5040283-1.3212891 1.2090454-2.1979981 1.9344482-2.4797363zm-2.8372803 2.0678711c-.3500977-.1911621-.6848755-.4106445-.9987793-.6621094.578186-.4558105 1.2294922-.8198242 1.9331055-1.0771484-.3587036.4797363-.6726074 1.067871-.9343262 1.7392578zm2.8372803 1.8259315v2.5231934h-2.6572266c.0353394-1.1101074.1821899-2.1179199.4139404-2.9868164.7141724.2600097 1.4678956.4165039 2.2432862.463623zm0 3.5231934v2.5283203c-.7745361.0473633-1.5279541.203125-2.2423706.4624023-.2322998-.869873-.3794556-1.8789062-.414856-2.9907227h2.6572266zm0 3.5283203v2.8891602c-.7247925-.2814941-1.4292603-1.1569824-1.9331665-2.4765625.6156006-.2268067 1.2650757-.3659669 1.9331665-.4125977zm-1.9029541 2.5605469c-.7039795-.2575684-1.3555908-.621582-1.934021-1.0778809.3146973-.2507324.6499023-.4694824 1.0003662-.659668.2615967.6706543.5752564 1.2583008.9336548 1.7375489zm2.9029541.3286132v-2.8886719c.666748.0473633 1.3157349.1870117 1.9318237.4145508-.5037841 1.3181153-1.2077026 2.192627-1.9318237 2.4741211zm2.8353272-2.0634765c.3502197.1896973.6856689.4077148 1.0010376.6572266-.5782471.4560547-1.2297974.8200684-1.9335938 1.0776367.3579102-.4787598.6712036-1.0654297.9325562-1.7348633zm-2.8353272-1.8251953v-2.5288086h2.6567383c-.0354004 1.112793-.1828613 2.1225586-.4155884 2.9931641-.7149048-.2597657-1.4679565-.4162598-2.2411499-.4643555zm0-3.5288086v-2.5234375c.7741089-.0483398 1.5274048-.2053223 2.2421875-.4658203.2321167.8693848.3792114 1.8781738.4145508 2.9892578zm-5.5799561-4.3332558c.4403076.3674316.9127197.6879883 1.4165039.9484901-.2844849 1.0085449-.4555664 2.15625-.4932861 3.3847656h-2.8394165c.1188355-1.6745605.824646-3.1865234 1.9161987-4.3332557zm-1.9161987 5.3332558h2.8394165c.0377808 1.2294922.2091675 2.3781738.4940186 3.3874512-.5040283.2595215-.9772339.5786133-1.418396.9448242-1.0908814-1.1467286-1.7962036-2.6582032-1.9150391-4.3322754zm12.0766602 4.3325195c-.4420776-.3649902-.9155273-.6831055-1.4191284-.9418945.2853394-1.0100098.4570923-2.159668.494873-3.390625h2.8394165c-.1187744 1.6743164-.8240967 3.1860351-1.9151611 4.3325195z" fill="#e7a04e" data-original="#E7A04E" class="active-path" style="fill:#E7A04E"/></g> </svg>
